<svg id="Layer_1" data-name="Layer 1" xmlns="http://www.w3.org/2000/svg" viewBox="0 0 112.67 36.42"><defs><style>.cls-1{fill:#cbc46e;stroke:#cbc46e;stroke-width:1.04px;}.cls-1,.cls-2,.cls-4{stroke-miterlimit:10;}.cls-2,.cls-5{fill:#004c23;}.cls-2{stroke:#004c23;stroke-width:0.47px;}.cls-3{fill:#fff;}.cls-4,.cls-6{fill:none;}.cls-4{stroke:#fff;stroke-width:0.19px;}</style></defs><title>CSU-Signature-Stacked-357-617</title><g id="_Group_" data-name="&lt;Group&gt;"><g id="_Group_2" data-name="&lt;Group&gt;"><path id="_Compound_Path_" data-name="&lt;Compound Path&gt;" class="cls-1" d="M18.24,30.09A11.83,11.83,0,1,1,30.07,18.25,11.85,11.85,0,0,1,18.24,30.09Zm0-23.22A11.39,11.39,0,1,0,29.62,18.25,11.4,11.4,0,0,0,18.24,6.87Z"/><path id="_Path_" data-name="&lt;Path&gt;" class="cls-2" d="M18.24,6.65a11.61,11.61,0,1,0,11.6,11.6A11.62,11.62,0,0,0,18.24,6.65Z"/><path id="_Compound_Path_2" data-name="&lt;Compound Path&gt;" class="cls-3" d="M18.24,7.06a11.2,11.2,0,1,0,11.19,11.2A11.22,11.22,0,0,0,18.24,7.06Zm7,19a1.26,1.26,0,0,1-1,0,.88.88,0,0,1-.5-.69A2.23,2.23,0,0,1,24.13,24a7.4,7.4,0,0,1,1.78-2c1.12-.83,1.9-1.07,1.61-1.26s-1.26.45-1.47.56A6.56,6.56,0,0,0,23,25.07a1.48,1.48,0,0,0,1.86,1.51A10.31,10.31,0,0,1,18.24,29h0a10.3,10.3,0,0,1-6.63-2.37,1.48,1.48,0,0,0,1.86-1.51,6.59,6.59,0,0,0-3-3.72c-.21-.11-1.28-.69-1.48-.56s.49.43,1.61,1.26a7.23,7.23,0,0,1,1.78,2,2.23,2.23,0,0,1,.41,1.33.91.91,0,0,1-.5.69,1.28,1.28,0,0,1-1.05,0A3,3,0,0,1,9.87,24.9a11.1,11.1,0,0,1-1.74-3.21c.3.66,2.19,3.44,3,3.48s-.84-2.26-2-3.22A1.54,1.54,0,0,1,8.48,21a.42.42,0,0,1,.42-.54,7.41,7.41,0,0,1,1.7.59c-2.11-3.8,1.13-5.72-.21-6.55-.47-.3-1.47,0-2,.08,5-2.95,5.86,0,7.37,1.34.23.22,1.29,0,1.49-.25a2,2,0,0,0,.2-2.23c-.88-1.1-4.5-4.36-7.8-1.48a10.58,10.58,0,0,1,17.19,0c-3.31-2.88-6.92.38-7.8,1.48a2,2,0,0,0,.19,2.23c.21.25,1.27.47,1.51.25,1.5-1.35,2.37-4.29,7.36-1.34-.54-.08-1.54-.38-2-.08-1.35.83,1.89,2.75-.22,6.55a7.41,7.41,0,0,1,1.7-.59A.42.42,0,0,1,28,21a1.54,1.54,0,0,1-.67.93c-1.17,1-2.88,3.27-2,3.22s2.74-2.82,3-3.48A11.1,11.1,0,0,1,26.6,24.9,3,3,0,0,1,25.26,26Zm-5.79-1.26c-.41,0-.85.13-1.21.13s-.81-.09-1.21-.13a.15.15,0,0,0-.12,0c-.23.5,1.13.78,1.32.78s1.57-.28,1.33-.78A.14.14,0,0,0,19.47,24.75Zm-1.21-4.43h0c-.39,0-.59.33-.95.7-.62.67-1.88,2.34-1,3.14a1.66,1.66,0,0,0,1.68.36c.19-.12.08-.5,0-.67-.35-.45-.89-.27-1-.49a.39.39,0,0,1,0-.5c.13-.16.34-.12.51-.07a1.43,1.43,0,0,1,.73.39v0h0v0a1.4,1.4,0,0,1,.72-.39c.17-.05.39-.09.51.07a.39.39,0,0,1,0,.5c-.16.22-.68,0-1,.49-.09.17-.21.55,0,.67a1.66,1.66,0,0,0,1.68-.36c.93-.8-.34-2.47-1-3.14C18.85,20.65,18.63,20.32,18.26,20.32Zm7.86-2.75c-.06-.46-.46-.61-.82-.72a2.51,2.51,0,0,0-1.79.11c.33-.37.25-1-.18-1.07-.81-.13-.59.74-.39,1.15s.28.68.68.65.42-.44,1.12-.5c0,0,.88.07.87.35s-.49.57-.79.67-.94-.07-1.3.34a.54.54,0,0,0-.16.45c0,.15.06.09.54.13a2.28,2.28,0,0,0-.44,1.3c0,1.21-.32,2.14-.2,2.56a4.89,4.89,0,0,0,.68-2.62,3,3,0,0,1,.43-1.25c.25-.37.72-.39,1-.62S26.16,17.91,26.12,17.57ZM13.25,15.89c-.42.07-.5.7-.18,1.07a2.47,2.47,0,0,0-1.78-.11c-.36.11-.77.26-.82.72s.42.71.72.93.78.25,1,.62a3.25,3.25,0,0,1,.43,1.25A4.88,4.88,0,0,0,13.32,23c.11-.42-.19-1.35-.2-2.56a2.28,2.28,0,0,0-.44-1.3c.49,0,.5,0,.54-.13a.51.51,0,0,0-.16-.45c-.35-.41-.86-.2-1.31-.34-.29-.1-.75-.26-.77-.67s.86-.35.86-.35c.71.06.63.46,1.11.5s.57-.39.7-.65S14.07,15.76,13.25,15.89ZM16.37,21A3,3,0,0,0,16.84,19a2.08,2.08,0,0,1-.93-.73c-.23-.34-.37-.71-.78-.82a1,1,0,0,0-.8.08c-.36.2-.45.7-.5,1.09a6.66,6.66,0,0,0,.48,2.75,12.62,12.62,0,0,0,1.29,2.37A4.17,4.17,0,0,1,16.37,21Zm-1.06-1.78c-.15-.28-.56-.23-.76-.34a.55.55,0,0,1,0-.89c.37-.35,1.35.76,1.13,1.62C15.59,19.68,15.54,19.63,15.31,19.26Zm6.82-1.75a1,1,0,0,0-.8-.08c-.4.11-.53.48-.77.82a2.1,2.1,0,0,1-.94.73A3.07,3.07,0,0,0,20.09,21a4.09,4.09,0,0,1,.79,2.68,11.93,11.93,0,0,0,1.28-2.37,6.83,6.83,0,0,0,.48-2.75A1.4,1.4,0,0,0,22.13,17.51Zm-.22,1.41c-.18.11-.59.06-.76.34s-.27.42-.37.39c-.21-.86.76-2,1.14-1.62A.55.55,0,0,1,21.91,18.92Z"/></g><g id="_Group_3" data-name="&lt;Group&gt;"><path id="_Path_2" data-name="&lt;Path&gt;" class="cls-4" d="M24.86,26.58A10.31,10.31,0,0,1,18.24,29h0a10.29,10.29,0,0,1-6.62-2.37"/><path id="_Path_3" data-name="&lt;Path&gt;" class="cls-4" d="M9.64,12a10.58,10.58,0,0,1,17.19,0"/></g></g><path class="cls-5" d="M36.12,17H38c.83,0,1.29-.41,1.29-1.17v-.88H38.05v.83c0,.07,0,.16-.2.16H36.26c-.16,0-.19-.08-.19-.16V12.54c0-.08,0-.16.19-.16h1.59c.18,0,.2.09.2.16v.83h1.24v-.88c0-.76-.46-1.18-1.29-1.18H36.12c-.83,0-1.29.42-1.29,1.18v3.32C34.83,16.57,35.29,17,36.12,17Z"/><path class="cls-5" d="M41.79,17h2c.83,0,1.29-.41,1.29-1.17V12.49c0-.76-.46-1.18-1.29-1.18h-2c-.84,0-1.3.42-1.3,1.18v3.32C40.49,16.57,41,17,41.79,17Zm0-1.22V12.54c0-.08,0-.16.19-.16h1.69c.19,0,.2.09.2.16v3.22c0,.07,0,.16-.2.16H41.93C41.76,15.92,41.74,15.84,41.74,15.76Z"/><polygon class="cls-5" points="50.17 15.91 47.52 15.91 47.52 11.31 46.28 11.31 46.28 16.98 50.17 16.98 50.17 15.91"/><path class="cls-5" d="M55.68,15.81V12.49c0-.76-.46-1.18-1.29-1.18h-2c-.84,0-1.3.42-1.3,1.18v3.32c0,.76.46,1.17,1.3,1.17h2C55.22,17,55.68,16.57,55.68,15.81Zm-1.25-3.27v3.22c0,.07,0,.16-.2.16H52.54c-.17,0-.19-.08-.19-.16V12.54c0-.08,0-.16.19-.16h1.69C54.42,12.38,54.43,12.47,54.43,12.54Z"/><path class="cls-5" d="M60.46,14.84a1.06,1.06,0,0,0,.85-1.13V12.49c0-.76-.46-1.18-1.29-1.18H56.89V17h1.24V14.89h1L60.21,17h1.36Zm-2.33-2.47h1.75c.16,0,.19.08.19.17v1.14c0,.08,0,.16-.19.16H58.13Z"/><path class="cls-5" d="M64.12,15.64h2L66.53,17h1.36L65.8,11.31H64.44L62.35,17h1.31Zm.35-1.07.63-1.84.62,1.84Z"/><path class="cls-5" d="M72.06,11.31h-3.2V17h3.2c.83,0,1.29-.41,1.29-1.17V12.49C73.35,11.73,72.89,11.31,72.06,11.31Zm-2,1.07h1.81c.17,0,.19.08.19.16v3.22c0,.08,0,.16-.19.16H70.1Z"/><path class="cls-5" d="M75.83,17h2c.84,0,1.3-.41,1.3-1.17V12.49c0-.76-.46-1.18-1.3-1.18h-2c-.84,0-1.3.42-1.3,1.18v3.32C74.53,16.57,75,17,75.83,17Zm0-1.22V12.54c0-.08,0-.16.19-.16h1.69c.19,0,.2.09.2.16v3.22c0,.08,0,.16-.2.16H76C75.8,15.92,75.78,15.84,75.78,15.76Z"/><path class="cls-5" d="M85.38,13.73l-1.56-.31c-.27-.06-.3-.11-.3-.26v-.63c0-.08,0-.17.2-.17h1.45c.16,0,.19.07.19.17v.65h1.23v-.69c0-.76-.46-1.18-1.29-1.18H83.57c-.83,0-1.29.42-1.29,1.18v.8c0,.82.62,1.06,1.3,1.2l1.56.32c.27.06.3.1.3.25v.71c0,.1,0,.17-.19.17H83.68c-.16,0-.19-.07-.19-.17v-.71H82.26v.75c0,.76.46,1.17,1.29,1.17h1.84c.84,0,1.29-.41,1.29-1.17v-.88C86.68,14.11,86.06,13.87,85.38,13.73Z"/><polygon class="cls-5" points="92.09 11.31 87.54 11.31 87.54 12.38 89.19 12.38 89.19 16.98 90.44 16.98 90.44 12.38 92.09 12.38 92.09 11.31"/><path class="cls-5" d="M94,11.31,91.92,17h1.31l.45-1.34h2L96.09,17h1.37l-2.1-5.67Zm1.28,3.26H94l.62-1.84Z"/><polygon class="cls-5" points="97.27 12.38 98.92 12.38 98.92 16.98 100.16 16.98 100.16 12.38 101.81 12.38 101.81 11.31 97.27 11.31 97.27 12.38"/><polygon class="cls-5" points="106.79 12.38 106.79 11.31 102.69 11.31 102.69 16.98 106.79 16.98 106.79 15.91 103.93 15.91 103.93 14.62 106.29 14.62 106.29 13.56 103.93 13.56 103.93 12.38 106.79 12.38"/><path class="cls-5" d="M38.12,24.18c0,.08,0,.16-.19.16H36.27c-.17,0-.2-.08-.2-.16V19.74H34.83v4.49c0,.76.46,1.18,1.29,1.18h2c.83,0,1.29-.42,1.29-1.18V19.74H38.12Z"/><polygon class="cls-5" points="44.18 23.37 41.82 19.74 40.58 19.74 40.58 25.41 41.76 25.41 41.76 21.67 44.19 25.41 45.36 25.41 45.36 19.74 44.18 19.74 44.18 23.37"/><rect class="cls-5" x="46.57" y="19.74" width="1.24" height="5.67"/><polygon class="cls-5" points="51.45 23.89 50.15 19.74 48.79 19.74 50.76 25.41 52.1 25.41 54.07 19.74 52.75 19.74 51.45 23.89"/><polygon class="cls-5" points="55.04 25.41 59.14 25.41 59.14 24.34 56.28 24.34 56.28 23.04 58.64 23.04 58.64 21.99 56.28 21.99 56.28 20.81 59.14 20.81 59.14 19.74 55.04 19.74 55.04 25.41"/><path class="cls-5" d="M64.72,22.14V20.92c0-.76-.45-1.18-1.29-1.18H60.3v5.67h1.25v-2.1h1l1.08,2.1H65l-1.12-2.14A1.06,1.06,0,0,0,64.72,22.14ZM61.55,20.8h1.74c.17,0,.19.08.19.16v1.15c0,.08,0,.16-.19.16H61.55Z"/><path class="cls-5" d="M69,22.16l-1.56-.31c-.28-.06-.3-.11-.3-.26V21c0-.08,0-.16.2-.16h1.45c.16,0,.19.06.19.16v.66h1.23v-.69c0-.76-.46-1.18-1.29-1.18H67.17c-.84,0-1.29.42-1.29,1.18v.79c0,.83.62,1.07,1.3,1.21l1.56.32c.27.05.3.1.3.25v.71c0,.1,0,.16-.19.16H67.28c-.16,0-.19-.06-.19-.16v-.72H65.86v.75c0,.76.46,1.18,1.29,1.18H69c.83,0,1.29-.42,1.29-1.18v-.87C70.28,22.53,69.66,22.29,69,22.16Z"/><rect class="cls-5" x="71.45" y="19.74" width="1.24" height="5.67"/><polygon class="cls-5" points="73.55 20.8 75.21 20.8 75.21 25.41 76.45 25.41 76.45 20.8 78.1 20.8 78.1 19.74 73.55 19.74 73.55 20.8"/><polygon class="cls-5" points="81.22 22.2 79.9 19.74 78.53 19.74 80.59 23.42 80.59 25.41 81.83 25.41 81.83 23.42 83.89 19.74 82.54 19.74 81.22 22.2"/><rect class="cls-6" x="106.82" y="11.64" width="5.85" height="5.85"/><rect class="cls-6" width="112.61" height="36.42"/></svg>