<?xml version="1.0" encoding="utf-8"?>
<!-- Generator: Adobe Illustrator 24.2.0, SVG Export Plug-In . SVG Version: 6.00 Build 0)  -->
<svg version="1.1" id="Layer_1" xmlns="http://www.w3.org/2000/svg" xmlns:xlink="http://www.w3.org/1999/xlink" x="0px" y="0px"
	 viewBox="0 0 424.27 100.57" style="enable-background:new 0 0 424.27 100.57;" xml:space="preserve">
<style type="text/css">
	.st0{fill:#00275B;}
	.st1{fill:#FFFFFF;}
	.st2{fill:#BD2036;}
</style>
<g>
	<path class="st0" d="M121.51,43.58c0,1.64,0.14,2.86,0.44,3.65c0.29,0.78,0.78,1.49,1.46,2.12h-8.79c0.69-0.62,1.19-1.34,1.47-2.12
		c0.29-0.79,0.43-2.01,0.43-3.65V20.36h-2.59c-1.78,0-3.22,0.14-4.33,0.42c-1.11,0.28-1.99,0.73-2.65,1.35l1.59-5.34h22.88
		l-1.5,5.25c-0.48-0.57-1.1-1-1.88-1.27c-0.78-0.27-1.76-0.41-2.94-0.41h-3.6V43.58L121.51,43.58z"/>
	<path class="st0" d="M138.89,44.25c0,1.46,0.13,2.55,0.38,3.25c0.26,0.7,0.69,1.34,1.3,1.89h-7.84c0.6-0.55,1.03-1.19,1.29-1.89
		c0.26-0.7,0.39-1.79,0.39-3.25v-18.8c0-1.47-0.13-2.55-0.39-3.25c-0.26-0.7-0.69-1.32-1.29-1.86h7.84
		c-0.61,0.54-1.05,1.16-1.3,1.86c-0.25,0.7-0.38,1.78-0.38,3.25v6.51h15.4v-6.51c0-1.47-0.13-2.55-0.38-3.25
		c-0.25-0.7-0.69-1.32-1.3-1.86h7.84c-0.6,0.54-1.03,1.16-1.29,1.86c-0.26,0.7-0.39,1.78-0.39,3.25v18.8c0,1.46,0.12,2.55,0.38,3.25
		c0.25,0.7,0.69,1.34,1.3,1.89h-7.84c0.62-0.55,1.05-1.19,1.3-1.89c0.25-0.7,0.38-1.79,0.38-3.25V35.3h-15.4V44.25L138.89,44.25z"/>
	<path class="st0" d="M164.25,49.39c0.6-0.55,1.03-1.19,1.29-1.89c0.26-0.7,0.39-1.79,0.39-3.26V25.46c0-1.47-0.13-2.55-0.39-3.26
		c-0.26-0.7-0.69-1.32-1.29-1.87h15.66v4.59c-0.69-0.57-1.47-0.97-2.3-1.23c-0.84-0.25-1.81-0.38-2.89-0.38
		c-0.57,0-1.2,0.04-1.9,0.14c-0.7,0.09-1.48,0.23-2.37,0.41v8.18h7.02v4.22c-0.34-0.39-0.78-0.67-1.34-0.83
		c-0.56-0.16-1.6-0.24-3.09-0.24h-2.59v10.42c1.09,0.16,2.07,0.29,2.95,0.37c0.88,0.09,1.64,0.13,2.28,0.13
		c1.46,0,2.83-0.2,4.12-0.59c1.29-0.39,2.56-1,3.81-1.81l-2,5.68H164.25L164.25,49.39z"/>
	<path class="st0" d="M220.12,49.34v-2.45c-1.56,1.13-3.13,1.98-4.71,2.54c-1.59,0.55-3.2,0.84-4.82,0.84
		c-1.86,0-3.52-0.32-4.97-0.93c-1.45-0.62-2.71-1.55-3.77-2.8c-0.83-0.98-1.42-2.12-1.78-3.42c-0.36-1.3-0.54-3.04-0.54-5.24V22.63
		c0-1.63-0.15-2.84-0.42-3.62c-0.29-0.78-0.76-1.47-1.44-2.08h8.71c-0.67,0.61-1.15,1.3-1.43,2.08c-0.28,0.78-0.42,1.98-0.42,3.62
		v14.24c0,2.22,0.1,3.88,0.32,4.95c0.21,1.07,0.58,1.93,1.08,2.57c0.61,0.76,1.42,1.33,2.45,1.72c1.01,0.38,2.22,0.57,3.64,0.57
		c1.16,0,2.27-0.17,3.28-0.53c1.01-0.34,1.9-0.86,2.66-1.53c0.68-0.56,1.16-1.29,1.45-2.18c0.29-0.89,0.43-2.11,0.43-3.65V22.63
		c0-1.7-0.14-2.92-0.42-3.68c-0.28-0.75-0.76-1.43-1.44-2.02h8.78c-0.68,0.59-1.16,1.3-1.46,2.12c-0.29,0.82-0.43,2.01-0.43,3.57
		v20.98c0,1.63,0.14,2.84,0.43,3.62c0.29,0.79,0.77,1.48,1.46,2.11H220.12L220.12,49.34z"/>
	<path class="st0" d="M258.64,20.34c-0.62,0.54-1.05,1.16-1.3,1.86c-0.25,0.7-0.38,1.78-0.38,3.24v24.62
		c-1-0.03-1.95-0.36-2.85-0.98c-0.89-0.63-2.02-1.82-3.38-3.58l-14.77-18.91v17.65c0,1.52,0.12,2.62,0.38,3.31
		c0.24,0.68,0.67,1.3,1.28,1.84h-6.5c0.61-0.55,1.04-1.19,1.29-1.89c0.26-0.7,0.39-1.79,0.39-3.26v-18.8c0-1.46-0.13-2.54-0.39-3.24
		c-0.25-0.7-0.69-1.32-1.29-1.86h5.81l16.93,21.82V25.44c0-1.46-0.13-2.54-0.39-3.24c-0.26-0.7-0.69-1.32-1.29-1.86H258.64
		L258.64,20.34z"/>
	<path class="st0" d="M269.48,44.24c0,1.46,0.12,2.55,0.38,3.26c0.25,0.7,0.68,1.34,1.3,1.89h-7.84c0.62-0.55,1.05-1.19,1.3-1.89
		c0.25-0.7,0.38-1.79,0.38-3.26v-18.8c0-1.46-0.12-2.54-0.38-3.24c-0.26-0.7-0.69-1.32-1.3-1.86h7.84c-0.62,0.54-1.05,1.16-1.3,1.86
		c-0.25,0.7-0.38,1.78-0.38,3.24V44.24L269.48,44.24z"/>
	<path class="st0" d="M287.77,50.13c-1.22-0.32-2.27-1.02-3.12-2.11c-0.87-1.08-1.66-2.69-2.39-4.84l-5.79-16.92
		c-0.47-1.4-0.91-2.54-1.33-3.41c-0.41-0.88-0.89-1.72-1.41-2.51l5.91,0.02c0.03,0.47,0.07,0.92,0.15,1.32
		c0.06,0.4,0.15,0.79,0.26,1.15l6.96,20.79l6.59-17.32c0.19-0.53,0.35-1.07,0.46-1.6c0.11-0.53,0.18-1.03,0.18-1.47
		c0-0.39-0.12-0.8-0.33-1.24c-0.22-0.44-0.59-0.99-1.11-1.64h6.56L287.77,50.13L287.77,50.13z"/>
	<path class="st0" d="M301.36,49.39c0.6-0.55,1.04-1.19,1.29-1.89c0.26-0.7,0.39-1.79,0.39-3.26V25.46c0-1.47-0.13-2.55-0.39-3.26
		c-0.25-0.7-0.69-1.32-1.29-1.87h15.66v4.59c-0.7-0.57-1.46-0.97-2.3-1.23c-0.84-0.25-1.8-0.38-2.9-0.38
		c-0.56,0-1.19,0.04-1.88,0.14c-0.71,0.09-1.5,0.23-2.37,0.41v8.18h7.02v4.22c-0.33-0.39-0.78-0.67-1.34-0.83
		c-0.56-0.16-1.59-0.24-3.09-0.24h-2.58v10.42c1.09,0.16,2.07,0.29,2.95,0.37c0.88,0.09,1.64,0.13,2.29,0.13
		c1.45,0,2.82-0.2,4.11-0.59c1.29-0.39,2.56-1,3.81-1.81l-2,5.68H301.36L301.36,49.39z"/>
	<path class="st0" d="M328.86,44.25c0,1.46,0.12,2.55,0.38,3.25c0.25,0.7,0.68,1.34,1.3,1.89h-7.84c0.6-0.55,1.03-1.19,1.29-1.89
		c0.26-0.7,0.39-1.79,0.39-3.25v-18.8c0-1.46-0.12-2.55-0.39-3.25c-0.26-0.7-0.69-1.32-1.29-1.87h9.91c2.82,0,5.1,0.68,6.84,2.05
		c1.73,1.37,2.61,3.15,2.61,5.34c0,1.59-0.52,3-1.57,4.2c-1.05,1.22-2.66,2.28-4.86,3.21l7.44,10.06c0.43,0.6,0.97,1.24,1.58,1.9
		c0.62,0.67,1.33,1.37,2.12,2.09l-2.22,0.21h-0.35c-1.04,0-2.06-0.27-3.05-0.84c-0.99-0.55-1.82-1.32-2.51-2.3l-8.52-11.92
		c2.54-0.58,4.38-1.36,5.56-2.36c1.17-1,1.75-2.28,1.75-3.86c0-1.46-0.5-2.66-1.51-3.58c-1-0.92-2.32-1.38-3.95-1.38
		c-0.37,0-0.82,0.03-1.34,0.09c-0.52,0.07-1.11,0.16-1.77,0.29V44.25L328.86,44.25z"/>
	<path class="st0" d="M348.14,48.74l-1.36-5.27c1.66,1.13,3.28,1.97,4.83,2.52c1.57,0.55,3.12,0.83,4.66,0.83
		c1.96,0,3.54-0.43,4.73-1.29c1.19-0.86,1.79-1.97,1.79-3.34c0-0.39-0.06-0.78-0.19-1.17c-0.12-0.39-0.29-0.76-0.54-1.11
		c-0.51-0.8-2.26-1.94-5.24-3.41c-0.75-0.36-1.34-0.65-1.75-0.86c-2.78-1.42-4.7-2.74-5.72-3.94c-1.04-1.2-1.56-2.62-1.56-4.27
		c0-2.36,0.95-4.23,2.85-5.62c1.89-1.39,4.49-2.08,7.79-2.08c0.95,0,1.99,0.06,3.13,0.19c1.14,0.12,2.38,0.32,3.71,0.58v4.88
		c-1.18-0.91-2.37-1.59-3.56-2.04c-1.2-0.45-2.44-0.67-3.72-0.67c-1.63,0-2.95,0.35-3.95,1.07c-0.99,0.71-1.49,1.64-1.49,2.78
		c0,1.02,0.4,1.92,1.18,2.71c0.77,0.78,2.53,1.83,5.25,3.14c0.15,0.07,0.39,0.18,0.71,0.33c2.3,1.07,4.02,2.07,5.17,2.97
		c0.84,0.67,1.51,1.49,1.98,2.45c0.48,0.96,0.71,1.99,0.71,3.08c0,2.5-1.12,4.61-3.38,6.35c-2.25,1.73-5.06,2.6-8.44,2.6
		c-1.09,0-2.25-0.12-3.5-0.36C350.96,49.57,349.61,49.21,348.14,48.74L348.14,48.74z"/>
	<path class="st0" d="M377.58,44.24c0,1.46,0.13,2.55,0.38,3.26c0.25,0.7,0.69,1.34,1.3,1.89h-7.85c0.62-0.55,1.06-1.19,1.31-1.89
		c0.25-0.7,0.38-1.79,0.38-3.26v-18.8c0-1.46-0.13-2.54-0.38-3.24c-0.25-0.7-0.69-1.32-1.31-1.86h7.85
		c-0.62,0.54-1.05,1.16-1.3,1.86c-0.26,0.7-0.38,1.78-0.38,3.24V44.24L377.58,44.24z"/>
	<path class="st0" d="M216.8,69.19l-4.74,12.09h9.38L216.8,69.19L216.8,69.19z M217.35,58.79l2.59,6.3l9.83,24.62
		c1.09,2.73,1.93,5.42,4.62,6.8v0.15h-9.69v-0.15c2.32-1.05,1.94-1.57,0.67-4.92l-2.55-6.77h-11.99l-2.45,6.77
		c-1,2.68-1.32,4.07,0.94,4.92v0.15h-8.69v-0.15c2.73-1.38,3.55-4.07,4.58-6.8l12.15-30.73V58.79L217.35,58.79z"/>
	<path class="st0" d="M156.65,70.04c-3.18,0-5.81,1.11-7.88,3.32c-2.07,2.22-3.1,5.05-3.1,8.5c0,3.56,1.02,6.51,3.07,8.86
		c2.04,2.35,4.6,3.52,7.66,3.52c3.17,0,5.79-1.11,7.86-3.34c2.06-2.22,3.09-5.06,3.09-8.52c0-3.56-1.01-6.5-3.06-8.84
		C162.25,71.2,159.7,70.04,156.65,70.04L156.65,70.04z M156.5,97.37c-2.19,0-4.24-0.35-6.17-1.06c-1.93-0.71-3.59-1.72-4.97-3.04
		c-1.46-1.39-2.58-3.04-3.38-4.93c-0.79-1.89-1.18-3.88-1.18-5.96c0-1.63,0.25-3.21,0.75-4.75c0.5-1.53,1.23-2.97,2.19-4.3
		c1.49-2.05,3.34-3.62,5.55-4.72c2.2-1.11,4.61-1.66,7.2-1.66c2.22,0,4.31,0.35,6.23,1.06c1.93,0.7,3.59,1.71,4.97,3.04
		c1.48,1.4,2.61,3.04,3.4,4.95c0.79,1.9,1.17,3.96,1.17,6.16c0,2.02-0.44,4-1.32,5.95c-0.88,1.94-2.12,3.65-3.71,5.15
		c-1.43,1.35-3.06,2.37-4.88,3.06C160.54,97.02,158.58,97.37,156.5,97.37L156.5,97.37z"/>
	<path class="st0" d="M180.83,91.54c0,1.47,0.12,2.55,0.38,3.25c0.26,0.7,0.69,1.33,1.31,1.88h-7.85c0.6-0.55,1.04-1.18,1.29-1.88
		c0.26-0.7,0.39-1.78,0.39-3.25V72.76c0-1.47-0.13-2.55-0.39-3.26c-0.26-0.7-0.69-1.32-1.29-1.87h15.68v4.59
		c-0.7-0.57-1.46-0.98-2.3-1.23c-0.84-0.25-1.81-0.38-2.91-0.38c-0.57,0-1.2,0.05-1.9,0.14c-0.7,0.09-1.49,0.23-2.37,0.42v8.18h7.05
		v4.22c-0.33-0.39-0.78-0.67-1.35-0.83c-0.57-0.16-1.61-0.24-3.12-0.24h-2.62V91.54L180.83,91.54z"/>
	<path class="st0" d="M242.65,91.55c0,1.46,0.13,2.54,0.38,3.24c0.25,0.7,0.69,1.33,1.3,1.88h-7.84c0.6-0.55,1.04-1.18,1.29-1.88
		c0.26-0.7,0.39-1.78,0.39-3.24V72.74c0-1.47-0.13-2.55-0.39-3.25c-0.26-0.7-0.69-1.32-1.29-1.86h9.9c2.82,0,5.1,0.68,6.84,2.05
		c1.73,1.37,2.6,3.15,2.6,5.34c0,1.59-0.52,2.99-1.56,4.21c-1.04,1.21-2.66,2.28-4.86,3.2l7.43,10.06c0.44,0.6,0.96,1.23,1.59,1.9
		c0.62,0.66,1.32,1.36,2.12,2.08l-2.22,0.21h-0.35c-1.04,0-2.05-0.27-3.04-0.83c-0.99-0.55-1.83-1.32-2.51-2.28l-8.52-11.93
		c2.53-0.57,4.39-1.36,5.56-2.36c1.17-1,1.76-2.29,1.76-3.86c0-1.47-0.5-2.66-1.51-3.58c-1-0.92-2.32-1.39-3.95-1.39
		c-0.37,0-0.82,0.04-1.34,0.1c-0.52,0.06-1.11,0.16-1.77,0.28V91.55L242.65,91.55z"/>
	<path class="st0" d="M269.16,91.54c0,1.47,0.12,2.55,0.38,3.25c0.25,0.7,0.69,1.33,1.3,1.88H263c0.61-0.55,1.04-1.18,1.3-1.88
		c0.25-0.7,0.38-1.78,0.38-3.25V72.73c0-1.47-0.13-2.54-0.38-3.24c-0.25-0.7-0.69-1.32-1.3-1.86h7.84c-0.62,0.54-1.05,1.16-1.3,1.86
		c-0.25,0.7-0.38,1.77-0.38,3.24V91.54L269.16,91.54z"/>
	<path class="st0" d="M298.18,91.23l-2.08,5.43h-22.31l15.23-25.3c-1.13-0.29-2.21-0.51-3.22-0.65c-1.01-0.14-1.95-0.21-2.81-0.21
		c-1.26,0-2.48,0.16-3.66,0.48c-1.17,0.31-2.37,0.81-3.59,1.5l1.97-4.85h18.55l-15.21,25.29c1.69,0.2,3.11,0.34,4.27,0.42
		c1.14,0.09,2.14,0.13,2.98,0.13c1.97,0,3.79-0.19,5.41-0.56C295.34,92.54,296.83,91.98,298.18,91.23L298.18,91.23z"/>
	<path class="st0" d="M314.82,70.04c-3.19,0-5.82,1.11-7.88,3.32c-2.06,2.22-3.1,5.05-3.1,8.5c0,3.56,1.03,6.51,3.07,8.86
		c2.04,2.35,4.6,3.52,7.66,3.52c3.17,0,5.79-1.11,7.86-3.34c2.06-2.22,3.09-5.06,3.09-8.52c0-3.56-1.02-6.5-3.06-8.84
		C320.41,71.2,317.87,70.04,314.82,70.04L314.82,70.04z M314.66,97.37c-2.19,0-4.24-0.35-6.17-1.06c-1.93-0.71-3.59-1.72-4.98-3.04
		c-1.45-1.39-2.58-3.04-3.37-4.93c-0.79-1.89-1.18-3.88-1.18-5.96c0-1.63,0.24-3.21,0.75-4.75c0.49-1.53,1.23-2.97,2.19-4.3
		c1.5-2.05,3.36-3.62,5.55-4.72c2.2-1.11,4.61-1.66,7.2-1.66c2.23,0,4.3,0.35,6.23,1.06c1.93,0.7,3.59,1.71,4.98,3.04
		c1.48,1.4,2.61,3.04,3.4,4.95c0.78,1.9,1.17,3.96,1.17,6.16c0,2.02-0.44,4-1.32,5.95c-0.88,1.94-2.12,3.65-3.7,5.15
		c-1.43,1.35-3.06,2.37-4.88,3.06C318.7,97.02,316.74,97.37,314.66,97.37L314.66,97.37z"/>
	<path class="st0" d="M360.28,67.63c-0.62,0.54-1.05,1.16-1.3,1.86c-0.26,0.7-0.38,1.77-0.38,3.24v24.6c-1-0.03-1.95-0.36-2.85-0.98
		c-0.9-0.62-2.02-1.81-3.38-3.56L337.6,73.88v17.66c0,1.52,0.12,2.62,0.37,3.3c0.24,0.68,0.67,1.29,1.27,1.83h-6.49
		c0.6-0.55,1.03-1.18,1.29-1.88c0.26-0.7,0.39-1.78,0.39-3.25V72.73c0-1.47-0.13-2.54-0.39-3.24c-0.26-0.7-0.69-1.32-1.29-1.86h5.8
		l16.94,21.82V72.73c0-1.47-0.14-2.54-0.4-3.24c-0.26-0.7-0.69-1.32-1.29-1.86H360.28L360.28,67.63z"/>
	<path class="st0" d="M370.84,82.89h8.44l-4.04-11.23L370.84,82.89L370.84,82.89z M366.97,92.75c-0.13,0.29-0.23,0.6-0.29,0.91
		c-0.06,0.31-0.09,0.63-0.09,0.96c0,0.28,0.09,0.59,0.29,0.91c0.21,0.33,0.52,0.71,0.96,1.12h-6.76c0.56-0.39,1.06-0.92,1.51-1.6
		c0.45-0.68,0.9-1.61,1.37-2.8l8.05-20.74c0.16-0.39,0.29-0.77,0.37-1.15s0.12-0.71,0.12-1c0-0.34-0.08-0.65-0.23-0.92
		c-0.16-0.28-0.42-0.56-0.78-0.84h6.51l9.11,24.35c0.42,1.1,0.88,2,1.37,2.68c0.49,0.68,1.12,1.36,1.89,2h-8.21l0.1-0.11
		c0.76-0.8,1.13-1.39,1.13-1.77c0-0.45-0.16-1.09-0.49-1.96c-0.05-0.14-0.08-0.24-0.1-0.31l-2.45-6.72H369.7L366.97,92.75
		L366.97,92.75z"/>
	<path class="st0" d="M405.4,20.29l7.45,12.66l5.01-8.25c0.3-0.5,0.54-0.96,0.7-1.37c0.15-0.41,0.23-0.76,0.23-1.06
		c0-0.33-0.1-0.66-0.3-0.99c-0.2-0.33-0.5-0.66-0.92-1h6.7l-9.83,15.99v7.93c0,1.47,0.13,2.55,0.39,3.26
		c0.27,0.71,0.7,1.34,1.3,1.89h-7.89c0.62-0.55,1.05-1.18,1.3-1.89c0.25-0.7,0.38-1.79,0.38-3.26l0.01-8.02l-6.73-11.08
		c-0.68-0.99-1.18-1.14-1.83-1.38c-0.69-0.24-1.86-0.27-2.93-0.27h-3.21v20.75c0,1.46,0.12,2.55,0.39,3.25
		c0.26,0.71,0.69,1.34,1.3,1.89h-7.85c0.61-0.55,1.05-1.18,1.3-1.89c0.25-0.7,0.37-1.79,0.37-3.25V23.47h-2.3
		c-1.59,0-2.89,0.12-3.87,0.38c-0.99,0.25-1.78,0.66-2.38,1.21l1.43-4.77H405.4L405.4,20.29z"/>
	<polygon class="st1" points="87.77,0.01 87.77,32.67 84.46,32.65 97.65,67.88 108.95,67.89 108.95,100.57 0,100.57 0,67.93 
		11.22,67.95 24.52,32.63 21.15,32.64 21.16,0 87.77,0.01 	"/>
	<polyline class="st0" points="54.48,12.12 75.52,12.12 75.52,20.54 66.78,20.54 89.76,79.77 96.56,79.77 96.56,88.49 68.07,88.49 
		68.07,80.01 60.07,80.01 60.07,96.63 105.03,96.63 105.03,71.84 94.94,71.86 78.75,28.72 83.84,28.72 83.84,3.94 54.48,3.94 
		54.48,3.94 25.11,3.94 25.11,28.72 30.2,28.72 14.01,71.81 3.92,71.84 3.92,96.63 48.88,96.63 48.88,80.01 40.88,80.01 
		40.88,88.49 12.39,88.49 12.39,79.77 19.19,79.77 42.17,20.54 33.43,20.54 33.43,12.12 54.48,12.12 	"/>
	<path class="st0" d="M118.03,89.43c0.82,0.8,1.23,1.79,1.23,2.95c0,1.16-0.41,2.14-1.23,2.95c-0.82,0.8-1.82,1.2-3.01,1.2
		c-1.19,0-2.19-0.4-3.01-1.2c-0.82-0.8-1.23-1.79-1.23-2.95c0-1.17,0.41-2.15,1.23-2.95c0.82-0.8,1.82-1.21,3.01-1.21
		C116.2,88.23,117.21,88.63,118.03,89.43L118.03,89.43L118.03,89.43z M117.43,89.93c-0.66-0.67-1.46-1-2.41-1
		c-0.95,0-1.75,0.33-2.41,1c-0.66,0.67-0.98,1.49-0.98,2.45c0,0.97,0.33,1.79,0.98,2.45c0.66,0.67,1.46,1,2.41,1
		c0.95,0,1.75-0.33,2.41-1c0.66-0.67,0.99-1.48,0.99-2.45C118.41,91.42,118.09,90.6,117.43,89.93L117.43,89.93L117.43,89.93z
		 M113.18,89.98h0.38h1.54c0.52,0,0.93,0.12,1.22,0.34c0.29,0.23,0.44,0.55,0.44,0.96c0,0.44-0.15,0.79-0.44,1.04
		c-0.22,0.19-0.5,0.31-0.85,0.35l1.38,2.1h-0.44h-0.44l-1.24-2.08l-0.8,0v2.07h-0.38h-0.38V89.98L113.18,89.98L113.18,89.98z
		 M113.93,92.07h1.02c0.36,0,0.62-0.06,0.78-0.19c0.17-0.13,0.25-0.33,0.25-0.6c0-0.24-0.08-0.41-0.25-0.53
		c-0.16-0.11-0.42-0.17-0.78-0.17h-1.02V92.07L113.93,92.07L113.93,92.07z"/>
	<path class="st2" d="M54.45,12.2l23.34,60.51c0,0,2.99,7.36,7.85,7.36H68.65c0,0,0.85,0.12,1.7-1.29c0.49-0.81,0.08-2.02,0.08-2.02
		l-5.25-13.51H54.45H43.78l-5.26,13.51c0,0-0.4,1.21,0.08,2.02c0.85,1.42,1.7,1.29,1.7,1.29H23.31c4.85,0,7.85-7.36,7.85-7.36
		L54.45,12.2 M54.44,56.83h8.22l-8.2-21.23l-8.2,21.23H54.44L54.44,56.83L54.44,56.83z"/>
</g>
</svg>
