<svg xmlns="http://www.w3.org/2000/svg" viewBox="0 0 200 65.722"><defs><style>.cls-1{fill:#0e4582;}.cls-2{fill:#fff;}.cls-3{fill:#e5313e;}</style></defs><title>Asset 6</title><g id="Layer_2" data-name="Layer 2"><g id="Layer_1-2" data-name="Layer 1"><path class="cls-1" d="M88.794,21.751c-4.7,0-7.761-3.348-7.761-8.293C81.033,8.605,84.3,5.1,89,5.1c4.465,0,7.266,3.164,7.266,8.478v.645H85.7c0,2.764,1.2,4.27,3.267,4.27a2.975,2.975,0,0,0,2.977-2.366l4.23.369c-.992,3.348-3.676,5.252-7.382,5.252m2.919-10.106c-.03-2.3-1.11-3.531-2.978-3.531-1.721,0-2.859,1.26-2.975,3.531Z"/><path class="cls-1" d="M192.53,21.751c-4.7,0-7.761-3.348-7.761-8.293,0-4.853,3.268-8.355,7.966-8.355C197.2,5.1,200,8.267,200,13.581v.645H189.437c0,2.764,1.2,4.27,3.268,4.27a2.973,2.973,0,0,0,2.977-2.366l4.231.369c-.993,3.348-3.677,5.252-7.383,5.252m2.919-10.106c-.031-2.3-1.11-3.531-2.977-3.531-1.722,0-2.86,1.26-2.976,3.531Z"/><polyline class="cls-1" points="96.698 5.534 101.648 5.534 103.948 14.808 106.146 5.534 110.239 5.534 112.54 14.96 115.28 5.534 118.975 5.534 114.425 21.321 110.275 21.321 107.664 11.062 105.054 21.321 101.268 21.321 96.698 5.534"/><path class="cls-1" d="M127.325,8.3c-2,0-3.376,1.72-3.434,5.1s1.325,5.13,3.26,5.13a3.365,3.365,0,0,0,3.208-3.225l3.935.46c-.515,3.655-3.424,5.99-7.456,5.99-4.677,0-7.909-3.348-7.825-8.293.086-5.037,3.465-8.355,8.464-8.355,3.8,0,6.411,2.212,6.863,5.99l-4.076.429c-.255-2.087-1.552-3.224-2.939-3.224"/><path class="cls-1" d="M145.906,18.772a5.36,5.36,0,0,1-4.962,2.948c-3.266,0-5.25-1.9-5.25-4.823,0-3.715,3.383-5.681,10.124-5.742v-.677a2.193,2.193,0,0,0-2.51-2.425c-1.837,0-2.889.767-3.121,2.21L136.1,9.8c.7-3.1,3.21-4.7,7.44-4.7,4.726,0,6.564,1.843,6.564,6.173v7a7.911,7.911,0,0,0,.438,3.041H146.2a12.788,12.788,0,0,1-.291-2.549m-5.6-2.151c0,1.29.819,2.058,2.277,2.058a3.383,3.383,0,0,0,3.239-3.686V13.581C142.17,13.642,140.3,14.748,140.3,16.621Z"/><path class="cls-1" d="M155.521,16.376c.379,1.444,1.691,2.273,3.647,2.273,1.663,0,2.6-.738,2.6-1.72,0-1.383-1.314-1.321-3.647-1.813-3.735-.767-5.6-2.027-5.6-4.883,0-2.949,2.393-5.16,6.361-5.16,3.239,0,5.428,1.443,6.362,4.116l-3.53.675A2.856,2.856,0,0,0,158.7,8.083c-1.459,0-2.247.553-2.247,1.567,0,1.38,1.517,1.32,4.347,1.934,3.414.737,5.079,1.966,5.079,4.73,0,3.1-2.628,5.344-7.091,5.344-3.618,0-6.186-1.811-6.916-4.761l3.648-.521"/><rect class="cls-1" x="178.261" width="4.53" height="21.321"/><path class="cls-1" d="M85.951,34.18a7.026,7.026,0,0,1,2.307-2.451,5.621,5.621,0,0,1,3.005-.817,4.726,4.726,0,0,1,2.421.574A4.034,4.034,0,0,1,95.253,33.3a6.392,6.392,0,0,1,.59,2.782v7.164a1.509,1.509,0,0,0,.356,1.138,1.7,1.7,0,0,0,1.192.339h1.021v1.155H90.705V44.723h.731a2.326,2.326,0,0,0,1.432-.329,1.188,1.188,0,0,0,.406-.983V37.146a5.816,5.816,0,0,0-.619-3.028,2.875,2.875,0,0,0-2.625-1.407,3.621,3.621,0,0,0-2.913,1.42,5.656,5.656,0,0,0-1.166,3.7v5.42a1.487,1.487,0,0,0,.363,1.133,1.749,1.749,0,0,0,1.2.335H88.52v1.155H80.684V44.723h1.011a1.851,1.851,0,0,0,1.161-.314.961.961,0,0,0,.4-.786V34.114a1.9,1.9,0,0,0-.5-1.429A2,2,0,0,0,81.3,32.2h-.745V31.169l5.2-.261.193,3.272"/><path class="cls-1" d="M98.717,31.233l5.908-.192V43.673a.933.933,0,0,0,.251.736,1.346,1.346,0,0,0,.912.314h1.663v1.155H99.037V44.723h1.556a1.347,1.347,0,0,0,1.013-.337,1.371,1.371,0,0,0,.321-.98V34.16a1.68,1.68,0,0,0-.5-1.324,2.2,2.2,0,0,0-1.5-.446H98.717V31.233m4.134-6.166a1.706,1.706,0,0,1,1.241.534,1.726,1.726,0,0,1,.533,1.256,1.767,1.767,0,0,1-3.533-.016,1.7,1.7,0,0,1,.534-1.24A1.683,1.683,0,0,1,102.851,25.067Z"/><path class="cls-1" d="M163.758,31.233l5.908-.192V43.673a.933.933,0,0,0,.251.736,1.347,1.347,0,0,0,.912.314h1.664v1.155h-8.416V44.723h1.557a1.341,1.341,0,0,0,1.012-.337,1.367,1.367,0,0,0,.323-.98V34.16a1.68,1.68,0,0,0-.5-1.324,2.2,2.2,0,0,0-1.5-.446h-1.211V31.233m4.134-6.166a1.7,1.7,0,0,1,1.24.534,1.723,1.723,0,0,1,.534,1.256,1.769,1.769,0,0,1-1.759,1.743,1.7,1.7,0,0,1-1.247-.526,1.678,1.678,0,0,1-.527-1.233,1.7,1.7,0,0,1,.534-1.24A1.683,1.683,0,0,1,167.892,25.067Z"/><path class="cls-1" d="M106.429,31.169h7.259v1.092a4.856,4.856,0,0,0-1.85.257.708.708,0,0,0-.4.647,1.8,1.8,0,0,0,.14.686l3.877,8.688,3.575-8.419a1.294,1.294,0,0,0,.078-.438q0-1.14-2.271-1.421V31.169h6.1v1.092a2.966,2.966,0,0,0-1.477.5,2.61,2.61,0,0,0-.851,1.085L115.2,46.329h-.872L108.6,33.5a2.1,2.1,0,0,0-.765-.949,2.9,2.9,0,0,0-1.409-.287V31.169"/><path class="cls-1" d="M135.9,38.621H125.3q.079,3.358,1.268,4.741a4.414,4.414,0,0,0,3.47,1.553q3.108,0,4.994-3.469l1,.436q-2.3,4.449-6.628,4.447a6.571,6.571,0,0,1-4.972-2.137,7.65,7.65,0,0,1-2.019-5.471,8.341,8.341,0,0,1,1.986-5.793,6.326,6.326,0,0,1,4.894-2.208,6.231,6.231,0,0,1,3.689,1.1,6.644,6.644,0,0,1,2.339,3.156,10.756,10.756,0,0,1,.582,3.645m-10.6-1.093H131.8a1.1,1.1,0,0,0,.9-.385,2.084,2.084,0,0,0,.32-1.313,4.212,4.212,0,0,0-1.1-2.936,3.37,3.37,0,0,0-2.582-1.21,3.486,3.486,0,0,0-2.822,1.46A7.178,7.178,0,0,0,125.3,37.528Z"/><path class="cls-1" d="M151.563,40.419a8.613,8.613,0,0,0,2.245,3.77,4.735,4.735,0,0,0,3.125,1.048,4.066,4.066,0,0,0,2.636-.753,2.361,2.361,0,0,0,.921-1.911,1.989,1.989,0,0,0-1.274-1.908,22.748,22.748,0,0,0-3.1-.724,12.766,12.766,0,0,1-3.334-.993,3.731,3.731,0,0,1-1.464-1.431,3.914,3.914,0,0,1-.523-1.982,4.524,4.524,0,0,1,1.079-2.941,4.78,4.78,0,0,1,3.9-1.682,5.737,5.737,0,0,1,3.537,1.234l1.035-1.105h.641l.407,5.268h-1.028a6.835,6.835,0,0,0-1.87-3.3,4.319,4.319,0,0,0-2.905-1.007,3.426,3.426,0,0,0-2.34.743,2.315,2.315,0,0,0-.849,1.814,1.919,1.919,0,0,0,.783,1.567,6.738,6.738,0,0,0,3.021,1,22.856,22.856,0,0,1,3.4.738,4.115,4.115,0,0,1,1.982,1.448,3.982,3.982,0,0,1,.7,2.385,4.209,4.209,0,0,1-1.529,3.282,5.671,5.671,0,0,1-3.885,1.346,6.524,6.524,0,0,1-4.048-1.431l-1.147,1.3h-.832l-.313-5.781h1.028"/><path class="cls-1" d="M183.33,31.169H190.4v1.092h-.661a2.374,2.374,0,0,0-1.269.238.784.784,0,0,0-.338.683.9.9,0,0,0,.1.4l4.117,8.8,3.078-7.3a3.884,3.884,0,0,0,.33-1.52,1.031,1.031,0,0,0-.454-.891,3.979,3.979,0,0,0-1.815-.412V31.169h6.1v1.092a2.6,2.6,0,0,0-2.334,1.553l-5.527,12.661A12.469,12.469,0,0,1,188.91,50.9a4.588,4.588,0,0,1-3.035,1.21,2.73,2.73,0,0,1-1.9-.644,2.06,2.06,0,0,1-.716-1.589,1.607,1.607,0,0,1,.44-1.162,1.463,1.463,0,0,1,1.1-.459,1.412,1.412,0,0,1,1.008.39,1.248,1.248,0,0,1,.408.933,2.472,2.472,0,0,1-.063.468,1.44,1.44,0,0,0-.063.342c0,.249.162.373.488.373a2.461,2.461,0,0,0,1.178-.371,3.822,3.822,0,0,0,1.224-1.188,35.386,35.386,0,0,0,1.983-3.709L185.394,33.58a2.254,2.254,0,0,0-.748-.911,3.109,3.109,0,0,0-1.316-.408V31.169"/><polyline class="cls-1" points="60.764 0.001 66.551 0.001 74.624 13.158 74.618 0.001 79.133 0.001 79.133 21.318 74.313 21.318 65.281 6.516 65.271 21.318 60.764 21.318 60.764 0.001"/><path class="cls-1" d="M58.081,24.526h9.645v1.155H66.111a1.917,1.917,0,0,0-1.2.283,1.056,1.056,0,0,0-.342.863V38.483a10.172,10.172,0,0,0,.36,3.105,4.717,4.717,0,0,0,1.948,2.478,6.656,6.656,0,0,0,3.7.925A6.569,6.569,0,0,0,75.4,43.352a5.886,5.886,0,0,0,1.658-4.382V29.76a8.768,8.768,0,0,0-.2-2.142,2.739,2.739,0,0,0-.57-1.137,2.248,2.248,0,0,0-.939-.6,6.473,6.473,0,0,0-1.9-.2V24.526H82.27v1.155h-.627a2.823,2.823,0,0,0-2.193.793,3.309,3.309,0,0,0-.72,2.3v9.976A7.457,7.457,0,0,1,76.6,44.48a8.975,8.975,0,0,1-6.39,2.246,12.433,12.433,0,0,1-5.431-.979A6.09,6.09,0,0,1,61.9,42.926a8.046,8.046,0,0,1-.674-3.517V26.828a1.041,1.041,0,0,0-.367-.84,1.691,1.691,0,0,0-1.1-.307H58.081V24.526"/><path class="cls-1" d="M176.218,18.045a7.231,7.231,0,0,1-1.372.143c-1.568,0-1.905-.706-1.905-2.489V8.605h3.277V5.534h-3.277V.954l-4.576.838V5.534h-2.038V8.605h2.038v7.586c0,3.871,1.475,5.56,5.189,5.56a14.624,14.624,0,0,0,2.664-.27V18.045"/><path class="cls-1" d="M182.355,40.293a6.278,6.278,0,0,1-.878,3.33,2.221,2.221,0,0,1-1.821,1.009,1.874,1.874,0,0,1-1.476-.663,2.815,2.815,0,0,1-.581-1.911V32.447h4.614V31.171H177.6V25.062H176.52a8.227,8.227,0,0,1-1.509,4.812,4.292,4.292,0,0,1-2.76,1.488v1.085h2.615V42.5a3.538,3.538,0,0,0,1.044,2.661,3.97,3.97,0,0,0,2.893,1.015,4.132,4.132,0,0,0,3.267-1.446,6.982,6.982,0,0,0,1.354-4.438h-1.069"/><path class="cls-1" d="M147.674,30.64c-2.569,0-4.733,3-5.623,6.359V30.912l-5.33.257v1.157H138a1.658,1.658,0,0,1,1.291.493,2.257,2.257,0,0,1,.452,1.56v9.357a.859.859,0,0,1-.376.7,1.807,1.807,0,0,1-1.115.29h-1.463v1.155h9.186V44.723H144.1a2.192,2.192,0,0,1-1.287-.283.959.959,0,0,1-.377-.815V40.9c0-2.824,1.194-7.648,3.585-7.648.652,0,.521,1.042,1.825,1.042a1.736,1.736,0,0,0,1.782-1.782,1.875,1.875,0,0,0-1.955-1.869"/><path class="cls-1" d="M0,0S0,12.69,0,21.308C0,52.66,28.072,65.722,28.072,65.722S56.143,52.66,56.143,21.308c0-8.618,0-21.307,0-21.307H0"/><rect class="cls-2" x="0.922" y="0.935" width="54.275" height="20.382"/><path class="cls-2" d="M46.026,42.012a17.989,17.989,0,0,0-.773-5.2c-4.881,3.2-9.73,4.053-12.6,2.3a1.192,1.192,0,0,0-1.673-1.673c-1.752-2.874-.9-7.724,2.3-12.605a17.965,17.965,0,0,0-5.205-.773h0a17.965,17.965,0,0,0-5.2.773c3.2,4.881,4.053,9.73,2.3,12.6A1.192,1.192,0,0,0,23.5,39.107c-2.874,1.752-7.723.9-12.6-2.3a17.994,17.994,0,0,0-.773,5.205h0a17.987,17.987,0,0,0,.773,5.2c4.882-3.2,9.731-4.053,12.6-2.3a1.192,1.192,0,0,0,1.673,1.674c1.751,2.874.9,7.723-2.3,12.6a17.966,17.966,0,0,0,5.2.774h0a17.966,17.966,0,0,0,5.205-.774c-3.2-4.88-4.053-9.73-2.3-12.6a1.192,1.192,0,0,0,1.674-1.673c2.874-1.752,7.723-.9,12.6,2.3a17.953,17.953,0,0,0,.773-5.2h0"/><path class="cls-1" d="M31.319,42.011a3.247,3.247,0,1,1-3.247-3.248,3.247,3.247,0,0,1,3.247,3.248"/><path class="cls-3" d="M10.875,13.409a5.984,5.984,0,0,0-3.43-1.022,2.359,2.359,0,0,1,1.181-1.125c-2.174,0-2.422-.589-2.5-1.091a2.038,2.038,0,0,0,1.53-.352A2.5,2.5,0,0,1,5.379,8.3c1.227-.091,1.213-.711,1.049-1.09a.811.811,0,0,0-.959-.4c-.36.111-.725.628-1.1.658-.351.028-.4-.327-.4-.543a1.42,1.42,0,0,0-.994.449A2.169,2.169,0,0,1,5.54,5.551,1.7,1.7,0,0,0,5.3,4.758c-.292-.291-.664-.259-.936-.46a.342.342,0,0,1,.12-.591c-.3-.395-1.122-.433-1.122-.433,1.7-1.26,2.813.345,3.171,1.575.454-.563.5-.878.441-1.189-.065-.342-.338-.588-.309-.785.044-.291.361-.232.361-.232a1.31,1.31,0,0,0-.714-.971A1.949,1.949,0,0,1,8.237,2.954a2.149,2.149,0,0,1-.153,2.118s.511.063.726-.212c.231-.293.1-.66.333-.86s.5.18.5.18c.256-.256.084-.884.033-1.058A1.423,1.423,0,0,1,10.3,4.409c-.06.561-.623,1.028-.86,1.335s-.926.973.185,2.895a4.238,4.238,0,0,0,1.714,1.814,5.6,5.6,0,0,0-.467,2.956"/><path class="cls-3" d="M5.471,15.989c-1.329.1-3.7.636-2.49,3.093a1.29,1.29,0,0,1,.494-1.174c.11.378.39.444.6.3.2-.136.432-.554.663-.712a1.059,1.059,0,0,1,.923-.128c-1.081,1.816.18,3.574,1.163,3.475A1.133,1.133,0,0,1,6.3,19.753a.439.439,0,0,0,.481-.2c.107-.222-.067-.665.049-1.078a.514.514,0,0,1,.562-.389.557.557,0,0,1,.443.631,1.56,1.56,0,0,1-.2.65c.586.421,2.206-.087,3.17-.923a2.455,2.455,0,0,1-.274,1.169,3.559,3.559,0,0,0,2.809-1.574,2.418,2.418,0,0,1-.46,1.712,5.371,5.371,0,0,0,3.824-1.772,1.836,1.836,0,0,0,2.53,1.3s-.59-.33-.59-.8c0-.758.832-1.335,1.867-1.787,1.2-.524,3.168-.762,5.16-1.708,3.668-1.74,4.325-3.424,7.342-3.424a3.578,3.578,0,0,1,3.267,1.389c.659,1.083.493,2.363,1.233,3.069s2.032.187,2.733-.028c1.755-.539,4.332-1.62,5.9-1.728a1.855,1.855,0,0,1,2.018,1.159c.121.343-.023.557-.249.542-.524-.033-1.475-.274-2.025.039a1.5,1.5,0,0,0-.568,1.531,1.643,1.643,0,0,1,1.2-.787c.017.047.107.629.588.414.326-.146.69-.591,1.326-.478-.61.526-1.75,2.587-.124,3.466a1.47,1.47,0,0,1-.08-1.341.556.556,0,0,0,.776-.139c.127-.186-.047-.7.058-1.1a1.033,1.033,0,0,1,.438-.558A2.857,2.857,0,0,0,52.575,18.7a1.487,1.487,0,0,1-.871-.774c.25-.176.366-.595.111-.7-.237-.1-.724-.013-.953-.329a1.567,1.567,0,0,1-.207-.945c.727.319,2.563,1.04,3.3-.6a2.448,2.448,0,0,1-1.224.323c-.044-.189-.245-.708-.633-.737a5.9,5.9,0,0,0-1.36.184.556.556,0,0,1-.616-.318.54.54,0,0,1,.078-.481,1.477,1.477,0,0,1,.565-.407c-.272-.538-1.184-.307-1.383-.272a1.578,1.578,0,0,1,.948-1.106c-.223-.384-.913-.728-2.041-.538a1.755,1.755,0,0,1,.862-1.086,3.545,3.545,0,0,0-3.323.734,1.942,1.942,0,0,0-.376-1.47s-1.677,2.111-3.323,1.831-1.387-2.258-1.387-2.258,3.249.516,4.821-.211,1.561-1.851,2.878-2.536a3.244,3.244,0,0,1,2.323-.1c-.194-1.086-2.253-1.938-3.835-.274,0,0-.039-2.509-3.916-2.311-1.411.072-4.044.863-6.454,1.3a50.812,50.812,0,0,1-7.329.638c-1.486,0-2.945-.326-2.945-1.3s1.074-1.108,1.784-1.108a14.812,14.812,0,0,1,3.981,1.1,6.937,6.937,0,0,0,2.3.32,11.958,11.958,0,0,0,3.851-1,5.805,5.805,0,0,1,3.113-.4c-.5-.656-2.359-1.431-4.509-.288-.2-.343.215-.991,1.05-1.258a6.656,6.656,0,0,0-3.072-.54c-2.328.06-3.064,1.156-5.327,1.059s-4.336.279-4.336,1.99c0,1.355,1.658,2.4,4.34,2.506-.068.213-.431.475-.547.545a5.677,5.677,0,0,0,4.045-1.1,1.048,1.048,0,0,1-.3.8A6.885,6.885,0,0,0,35.884,6.4a1.169,1.169,0,0,1-.369.873c1.656-.117,2.56-.956,3.686-1.312,1.5-.473,6.332-1.6,6.332,1.081,0,.641-.312,1.556-1.979,1.556a30.731,30.731,0,0,1-5.074-.861,7.037,7.037,0,0,0-2.631-.027C34.49,7.9,24.283,9.355,22.613,9.592c0,.549.02,2.266.921,3.046a2.915,2.915,0,0,1-2.78-.045A3.254,3.254,0,0,0,21.386,15a3.047,3.047,0,0,1-2.663-.228,3.836,3.836,0,0,1-4.542,2.143,4.289,4.289,0,0,0,.72-1.384c-.6.442-2.178,1.305-5.118.963-.892-.1-1.829-.383-2.085-.956-.272-.6.111-1.459-.077-1.936a1.469,1.469,0,0,0-1.466-.9c.118.1.523.347.6.705a.434.434,0,0,0-.452.464,4.8,4.8,0,0,0,.2,1.4C5.267,14.026,3.227,12.7,2.57,14.879a1.1,1.1,0,0,1,.977-.429s-.243.379.238.71c.225.156.788-.015,1.074.117a1.931,1.931,0,0,1,.63.711"/><path class="cls-3" d="M32.575,15.341c.259.184.137.388.013.505s-1.469,1-2.339.726c-.665-.206-.663-1.4-1.582-1.783a1.866,1.866,0,0,0-1.564.249,2.484,2.484,0,0,1,.843.226.3.3,0,0,0,.125.418c.276.152.478.079.677.3.255.282.046.863.046.863-1.986-1.557-3.83-.5-3.96.508a1.709,1.709,0,0,1,.968-.322s.007.3.255.367c.289.076.639-.191,1.06-.126a1.706,1.706,0,0,1,.825.475,1.668,1.668,0,0,0-.965,2.684c-.021-.287.011-.664.2-.791a.589.589,0,0,0,.579-.025c.231-.2.306-.671.6-1.012a1.058,1.058,0,0,1,.668-.366c-.161.878.627,2.6,2.078,2.243a1.225,1.225,0,0,1-.592-.751s.411-.147.367-.368c-.073-.367-.625-.286-.625-.736,0-.281.242-.487.621-.487.878,0,.755,1.12.755,1.12a2.156,2.156,0,0,0,1.6-1.43,1.74,1.74,0,0,1,.419,1.364c.723-.3,1.3-.833,1.3-2.852a2.4,2.4,0,0,0,3.193.582,2.353,2.353,0,0,1-1.771-1.952,4.414,4.414,0,0,0-.872-2.1c-.921-.92-3-.855-4.2-.475a.864.864,0,0,0-.691.9,1.5,1.5,0,0,0,.972,1.546,7.759,7.759,0,0,1,1,.5"/><path class="cls-3" d="M23.828,5.239c.045-.082.134-.417-.181-.512a4.355,4.355,0,0,0-1.4.013,1.722,1.722,0,0,0-.281-2.12.9.9,0,0,1-1.146.758c-.66-.171-.407-1.1-.209-1.494A2.321,2.321,0,0,0,18.5,3.036a2.042,2.042,0,0,0-1.868-1.613c.27.564-.057,1.434-.548,1.252-.1-.886-1.022-1.26-1.089-.642-.11,1.025-1.064,2.276-1.849,2.342-.072.569.6.88.975.889a2.464,2.464,0,0,1-3.075.862,1.756,1.756,0,0,0,1.664,1.653,2.017,2.017,0,0,1-2.175.762c-.163.847,1.211,1.6,1.584,1.666A4.778,4.778,0,0,0,12,15.061a3.062,3.062,0,0,1,.578-.934c.285-.272.5-.329.684-.236.261.132.184.535.035.831a4.561,4.561,0,0,1-.875,1.082,4.161,4.161,0,0,0,3.127-1.315,3.037,3.037,0,0,1-.448,1.963c1.988.213,2.979-1.517,3.408-2.572a2.153,2.153,0,0,0,2.015.74,3.125,3.125,0,0,1-.071-2.9,2.4,2.4,0,0,0,2.156.633A6.4,6.4,0,0,1,22.141,8.5a1.368,1.368,0,0,0,1.287.215,3.4,3.4,0,0,1-.3-1.845,4.409,4.409,0,0,1,.7-1.627m-7.7.566c.076-.084.181-.171.24-.084A2.176,2.176,0,0,0,16.8,6.3a1.7,1.7,0,0,0,.581.3c.069.278-.407.624-1.024.055C16.038,6.362,15.941,6.013,16.132,5.805Zm1.506,5.411c-.242.486-1.252,1.2-1.834.89a3.271,3.271,0,0,0,1.325-1.226,1.53,1.53,0,0,1-.381-.27,3.365,3.365,0,0,0-.917.9,2.017,2.017,0,0,1,.32-1.191,3.257,3.257,0,0,1-.564-.214,3.3,3.3,0,0,0-.221,1.783c-.6-.282-.621-1.52-.374-2-.753-.527-.506-1.161-.276-1.287.006.206.192.646.841.972s.914.1.987-.043c.133-.263-.191-.508-.421-.759A.689.689,0,0,1,16,7.943a.523.523,0,0,1,.694-.069c-.795.142.166.975.412,1.1s1.488.4,1.129-.322a.524.524,0,0,1,.357.6.688.688,0,0,1-.731.391c-.338-.036-.728-.151-.861.112-.073.146-.1.493.552.82a1.323,1.323,0,0,0,1.282.1C18.872,10.932,18.51,11.507,17.638,11.216Zm2.6-3.34c-.054.277-.392.407-.815.326-.824-.158-.829-.746-.564-.857a1.673,1.673,0,0,0,.585.29,2.173,2.173,0,0,0,.719,0C20.268,7.629,20.26,7.765,20.238,7.876Z"/></g></g></svg>