<svg id="Art" xmlns="http://www.w3.org/2000/svg" viewBox="0 0 438.01 139.95"><defs><style>.cls-1{fill:#fff;}.cls-2{fill:#231f20;}.cls-3{fill:#f15d22;}</style></defs><title>OSU_horizontal_2C_O_over_B</title><path class="cls-1" d="M283.65,275.92A42.72,42.72,0,0,0,280,264a20.93,20.93,0,0,0-5.17-6.78,15.23,15.23,0,0,0-9.89-3.63,17.78,17.78,0,0,0-5,.69l5.33-11.42-10.91-7.75h-7.85c-1.34,0-2.81-1-4.67-2.3-3.28-2.28-7.78-5.39-15.39-5.39-6.42,0-11.49,1.79-15.49,5.47l-26.13,25.49h0a21.88,21.88,0,0,0-3.93,5.62,42.72,42.72,0,0,0-3.64,12,68.78,68.78,0,0,0,1,29.14,77.57,77.57,0,0,0,14,27.62c8.21,10.57,19.44,20.17,33.39,28.54l4.78,2.87,4.78-2.87c13.95-8.37,25.18-18,33.39-28.54a77.57,77.57,0,0,0,14-27.62A68.78,68.78,0,0,0,283.65,275.92Z" transform="translate(-176.2 -227.38)"/><path class="cls-2" d="M222.79,265.21h-14.5L207,287a8.54,8.54,0,0,1,2.31.69Z" transform="translate(-176.2 -227.38)"/><path class="cls-2" d="M211.52,314.69l-.12-.05v1.77c.23.11.47.21.72.31a11.38,11.38,0,0,0,4.51.8,11.26,11.26,0,0,0,4.81-.93v-1.75a10,10,0,0,1-4.81,1.08,9.89,9.89,0,0,1-4.51-.94Z" transform="translate(-176.2 -227.38)"/><path class="cls-2" d="M212.12,321.48l-.6-.29-.12-.05v1.77l.72.31a11.38,11.38,0,0,0,4.51.8,11.9,11.9,0,0,0,3.68-.51v-1.69a11.42,11.42,0,0,1-8.19-.34Z" transform="translate(-176.2 -227.38)"/><path class="cls-2" d="M212.12,328l-.6-.28-.12-.06v1.77c.23.11.47.22.72.32a11.38,11.38,0,0,0,4.51.8,14.74,14.74,0,0,0,2.14-.15v-1.63a11.8,11.8,0,0,1-2.14.18A9.75,9.75,0,0,1,212.12,328Z" transform="translate(-176.2 -227.38)"/><path class="cls-2" d="M228.42,235.15a14.63,14.63,0,0,1,3.46,1.2,22.05,22.05,0,0,1,3.14,2,49.16,49.16,0,0,0,4.82,3.35v-2.71c-1.23-.67-2.45-1.48-3.73-2.28a23,23,0,0,0-3.56-1.84,16,16,0,0,0-3.9-1,18.3,18.3,0,0,0-4-.08l-.23,0v1.06a2.43,2.43,0,0,1,.27,0A17.61,17.61,0,0,1,228.42,235.15Z" transform="translate(-176.2 -227.38)"/><path class="cls-2" d="M282.08,276.19a41.45,41.45,0,0,0-3.5-11.52,19.25,19.25,0,0,0-4.77-6.26,13.68,13.68,0,0,0-8.86-3.26,15.28,15.28,0,0,0-11.14,4.56L249,254.5l.79-1.68h6.57l-.78,1.68h2.52l5.21-11.15-9.41-6.68h-7.34c-1.84,0-3.49-1.14-5.58-2.59-3.28-2.27-7.37-5.1-14.48-5.1-6,0-10.71,1.64-14.41,5L195.4,250.28h0l-9.4,9.18a20.52,20.52,0,0,0-3.64,5.21,41.45,41.45,0,0,0-3.5,11.52,67.21,67.21,0,0,0,1,28.46,75.87,75.87,0,0,0,13.73,27.05c8.09,10.41,19.18,19.88,32.95,28.15l4,2.37,4-2.37c13.77-8.27,24.86-17.74,32.95-28.15a75.87,75.87,0,0,0,13.73-27.05A67.05,67.05,0,0,0,282.08,276.19Zm-68.44-40.51c1.19-1.09,4.81-4.42,12.84-4.42,6.39,0,10,2.5,13.18,4.7,2.32,1.61,4.33,3,6.88,3h6.62l7.25,5.16-3,6.43h-6.52a4.52,4.52,0,0,1-2.63-1,4.78,4.78,0,0,1-1.61-3.31h-1.14a6.37,6.37,0,0,0,.3,2.36,5.9,5.9,0,0,0,2.07,2.92l-1.62,3.46,4.45,4.81h-3.38l-5.84-5h-1.37l4.31,5h-8.65l-5-5h-3a11.6,11.6,0,0,0,1-4.24c0-.27,0-.53,0-.8l-.06-.8,0-.39-.06-.4-.14-.78a12.27,12.27,0,0,0-1.14-2.95,11.07,11.07,0,0,0-1.87-2.52l-.27-.29-.3-.26c-.2-.17-.39-.34-.6-.5a12.8,12.8,0,0,0-1.3-.87,11.06,11.06,0,0,0-4.56-1.46,12.56,12.56,0,0,0-1.37-.06v1.1a10.12,10.12,0,0,1,5.2,1.62,9.73,9.73,0,0,1,1.1.81l.5.47.24.23.23.26a9.91,9.91,0,0,1,2.33,4.79l.08.67.05.33V249l0,.67c0,.22,0,.44,0,.66a9.63,9.63,0,0,1-1.88,4.86L223.6,257h6.24l2.71,2.71H206.87v-9.45h-8.2Zm-11.55,33.25a8.48,8.48,0,0,1-7.39,6.35c-.28,0-.56,0-.84,0a8.49,8.49,0,0,1-8.46-7.92,5.44,5.44,0,0,1,0-.57,8.48,8.48,0,0,1,2.68-6.18l8.28-8.08h8.25v8.13Zm76.81,35.13a69.34,69.34,0,0,1-6.83,16.54h0l-.47.82c-.12.2-.24.41-.37.61s-.31.53-.47.79l-.42.67c-.15.25-.3.49-.46.73-.27.43-.56.86-.84,1.29l-.34.5c-.22.31-.43.63-.66.94s-.25.37-.38.55l-.68.94-.35.47-1,1.38h0c-.33.43-.68.85-1,1.27a101.25,101.25,0,0,1-13,13.3,130,130,0,0,1-11.91,9c-2.05,1.37-4.16,2.72-6.36,4l-2.78,1.67h0l-2.78-1.67c-13.53-8.12-24.41-17.4-32.32-27.59-.24-.3-.46-.6-.68-.89l-.46-.61c-.28-.37-.55-.74-.81-1.12l-.29-.39-.89-1.29-.15-.22c-.33-.48-.64-1-1-1.44a.35.35,0,0,1,0-.08,70.91,70.91,0,0,1-9.05-20.2,64.74,64.74,0,0,1-.92-27.48,45.05,45.05,0,0,1,2.09-8.1,10.55,10.55,0,0,0,1.91,4.64c-.32,1.24-.6,2.55-.85,4q-.59,3.42-.83,6.8l15.06,7a9.4,9.4,0,0,1,.84-1.15,10.09,10.09,0,0,1,.74-.72L191,277.21a10.46,10.46,0,0,0,5,.18l6.19,10.33a8.47,8.47,0,0,1,2.3-.69l-.92-15.47a11.57,11.57,0,0,0,.76-2l2.19-7.24.08-.27H254.8l.34-.38a12.76,12.76,0,0,1,9.81-4.2,11.41,11.41,0,0,1,7.39,2.73,17,17,0,0,1,4.2,5.53,39.19,39.19,0,0,1,3.28,10.89A64.74,64.74,0,0,1,278.9,304.06Z" transform="translate(-176.2 -227.38)"/><path class="cls-2" d="M253.7,244.81a1.24,1.24,0,1,0-1.23-1.24A1.24,1.24,0,0,0,253.7,244.81Z" transform="translate(-176.2 -227.38)"/><path class="cls-2" d="M246.65,244.22v0a2.48,2.48,0,0,1,1.91-1.89v-1.17h-3.08v3.08Z" transform="translate(-176.2 -227.38)"/><path class="cls-2" d="M276.67,277.12c-1.3-7.52-4.39-16.49-11.72-16.49a9.36,9.36,0,0,0-8.47,4.58H229.69l-18.31,23.87a8.08,8.08,0,0,1,.66.65,7.85,7.85,0,0,1,1,1.31l13.13-5.94-1.08,4.75L214,293.36a9.33,9.33,0,0,1,.31,2.53,7.53,7.53,0,0,1-1.07-.3,10.39,10.39,0,0,1-1.07-.44l-.51-.25-1-.47a11.14,11.14,0,0,0-2.76-.79c-.16,0-.32-.05-.49-.06s-.52-.06-.8-.07l-.76,0h-.23l-.76,0q-.39,0-.75.06l-.53.07a10.79,10.79,0,0,0-2.68.75l-1.11.51-.53.26c-.34.15-.68.3-1,.43a9.13,9.13,0,0,1-1.07.3,8.92,8.92,0,0,1,.34-2.63l-14.2-4.71c0,1.66.07,3.31.21,4.94h0c0,.17,0,.33.05.49,0,.35.05.69.09,1h0c0,.25.05.51.08.76h.88l.44,0h.06c.34,0,.65.07.94.12h0a10.49,10.49,0,0,1,2.85,1,13.15,13.15,0,0,0,11.89,0c.43-.21.84-.41,1.28-.58a9.17,9.17,0,0,1,3-.61H206l.44,0a9,9,0,0,1,2.9.56,14.36,14.36,0,0,1,1.39.62,13.15,13.15,0,0,0,11.89,0c.33-.16.65-.32,1-.46l-.5,2.2,2.11-.43-.51,2.33a13.21,13.21,0,0,0-2.93,1.1,11.21,11.21,0,0,1-10.21,0,12.77,12.77,0,0,0-11.59,0,11.21,11.21,0,0,1-10.21,0,13,13,0,0,0-2.87-1.08h0l-.18,0-.28-.06-.33,0-.22,0h0c-.42-.05-.88-.09-1.39-.11q.17.81.36,1.62a8.48,8.48,0,0,1,.94.1l.3.05.21,0,.47.1.05,0,.47.14a14.41,14.41,0,0,1,1.78.75,12.77,12.77,0,0,0,11.59,0,11.21,11.21,0,0,1,10.21,0,12.77,12.77,0,0,0,11.59,0,15.05,15.05,0,0,1,1.86-.78l-1,4.8a17.5,17.5,0,0,0-1.66.73,10.91,10.91,0,0,1-9.91,0,13.07,13.07,0,0,0-11.89,0,10.91,10.91,0,0,1-9.91,0c-.33-.16-.68-.33-1.05-.49h0l-.07,0-.13-.06h0a10.63,10.63,0,0,0-2.47-.69c.28.84.58,1.68.89,2.52h0a68.73,68.73,0,0,0,5.06,10.59l.27.47.44.74.33.54.44.69.37.58.43.65.42.63.41.6.49.69.38.54.58.8.32.43.93,1.23c7.67,9.87,18.25,18.89,31.44,26.8l1.14.69,1.14-.69c13.19-7.91,23.77-16.93,31.44-26.8l0,0c.48-.62.94-1.24,1.39-1.86l.18-.23,1.34-1.9.11-.17c.92-1.36,1.8-2.73,2.61-4.12A67.72,67.72,0,0,0,274,308.85h0c.27-.74.53-1.47.77-2.21a10.63,10.63,0,0,0-2.47.69h0l-.13.06-.08,0h0c-.37.16-.71.33-1.05.49a10.91,10.91,0,0,1-9.91,0,13.07,13.07,0,0,0-11.89,0,10.91,10.91,0,0,1-9.91,0,17.5,17.5,0,0,0-1.66-.73l-1.92-8.89,2.11.43h0l-1.28-5.61,6.91-6.86,4.56,3.35,7.14-7.21,7.13,7.21,4.55-3.34,8.17,8.28,2.05,2.08c.1-.72.18-1.44.25-2.17h0c0-.1,0-.2,0-.31s0-.29.05-.44h0A65.3,65.3,0,0,0,276.67,277.12Zm-13.42,1.06.14-.42H266l.8-2.48h.44l.81,2.48h2.6l.14.42-2.11,1.53.8,2.48-.35.26L267,280.92l-2.11,1.53-.35-.26.81-2.48Zm-5.57-.3-.35.26-2.11-1.54-2.11,1.54-.36-.26.81-2.48-2.11-1.53.13-.42h2.61L255,271h.43l.81,2.48h2.61l.13.42-2.11,1.53Zm-11.8,4.31-.36.26-2.11-1.53-2.11,1.53-.35-.26.81-2.48-2.11-1.53.13-.42h2.61l.81-2.48h.43l.81,2.48h2.61l.13.42-2.11,1.53Zm-9.58,29.3-2.58-.53h0l3.54,16.94h0l-6.79-2.74-6.79,2.74h0l3.55-17-2.58.53h0L228,295.37h0l-2,.4,4.19-22.42h.42l4.19,22.42-2-.4h0Zm-4.45,18.66.53,16h-3.81l.55-16,.1-2.6,1.25-.63,1.3.65Zm-4.67,4.6-.08,1a7.83,7.83,0,0,0-3.69,1,13.68,13.68,0,0,1-6.78,1.61,13.54,13.54,0,0,1-6.52-1.48l-.27-.13-.68-.32-.11,0a6.94,6.94,0,0,0-.9-.34l.95-.8h0l0,0,.26-.22a15,15,0,0,1,1.41.62l.59.28a11.33,11.33,0,0,0,5.21,1.1,11.65,11.65,0,0,0,5.79-1.38,10.05,10.05,0,0,1,4.79-1.23Zm22.34,1.16.59-.28a15,15,0,0,1,1.41-.62l1.28,1.06a8.09,8.09,0,0,0-1,.38l-.1.05-.59.27-.26.13a15.11,15.11,0,0,1-13.31-.13,7.85,7.85,0,0,0-3.71-1l-.08-1,0-.35a10.14,10.14,0,0,1,4.81,1.23,11.65,11.65,0,0,0,5.79,1.38A11.33,11.33,0,0,0,249.52,335.91Zm-27-26,.08,0-1,4.5h0l2.68-.54-3.85,18,7.17-3.55-.19,2.42-.15,2.09a11.55,11.55,0,0,0-5.6,1.39,10.17,10.17,0,0,1-5.1,1.22,9.92,9.92,0,0,1-4.78-1.07l-.33-.15a17.5,17.5,0,0,0-1.62-.71V311.24l-.06.05-1.53,1.16v21.4l-1.43,1.2h0v-23.4l2.84-2.14.13.06.57.26.27.14c.44.2.89.42,1.4.62l0,0a11.92,11.92,0,0,0,4.51.78A12.13,12.13,0,0,0,222.57,310Zm15.8,0a12.15,12.15,0,0,0,5.95,1.42,11.9,11.9,0,0,0,4.5-.78l0,0c.51-.2,1-.42,1.4-.62l.08,0c.26-.13.51-.25.77-.36l.13-.05,2.83,2.13V335h0l-1.42-1.2v-21.4l-1.6-1.21v22.24a17.5,17.5,0,0,0-1.62.71l-.33.15a9.89,9.89,0,0,1-4.78,1.07,10.17,10.17,0,0,1-5.1-1.22,11.57,11.57,0,0,0-5.62-1.39l-.16-2.1-.19-2.42,7.2,3.56-.49-2.31-3.35-15.65,2.67.54-1-4.5Z" transform="translate(-176.2 -227.38)"/><path class="cls-2" d="M248.82,316.72c.25-.1.49-.2.72-.31v-1.77l-.12.05-.6.29a11.25,11.25,0,0,1-9.31-.14v1.75a11.21,11.21,0,0,0,4.8.93A11.38,11.38,0,0,0,248.82,316.72Z" transform="translate(-176.2 -227.38)"/><path class="cls-2" d="M248.82,321.48a11.42,11.42,0,0,1-8.19.34v1.69a12,12,0,0,0,3.68.51,11.38,11.38,0,0,0,4.51-.8l.72-.31v-1.77l-.12.05Z" transform="translate(-176.2 -227.38)"/><path class="cls-2" d="M248.82,328a9.75,9.75,0,0,1-4.51,1,11.8,11.8,0,0,1-2.14-.18v1.63a14.74,14.74,0,0,0,2.14.15,11.38,11.38,0,0,0,4.51-.8c.25-.1.49-.21.72-.32v-1.77l-.12.06Z" transform="translate(-176.2 -227.38)"/><polygon class="cls-2" points="15.46 41.56 16.36 42.18 25.72 29.39 25.72 27.76 24.17 27.76 15.46 41.56"/><polygon class="cls-2" points="68.5 73.87 68.5 68.37 66.18 68.37 66.18 69.7 66.95 69.7 66.95 73.87 68.5 73.87"/><path class="cls-2" d="M249.11,299.77a2.17,2.17,0,0,0,4.24,0,1.49,1.49,0,0,0-.95-1.42,1.35,1.35,0,0,0,.73-1.21,1.93,1.93,0,0,0-3.8,0,1.34,1.34,0,0,0,.72,1.21A1.49,1.49,0,0,0,249.11,299.77Zm2.12-2.07a.52.52,0,0,1,0-1,.52.52,0,0,1,0,1Zm0,2.46a.56.56,0,0,1-.56-.57.56.56,0,1,1,1.11,0A.56.56,0,0,1,251.23,300.16Z" transform="translate(-176.2 -227.38)"/><path class="cls-2" d="M259.26,295.75l-1.18,1.53a3.84,3.84,0,0,0-.87,2.17A2.06,2.06,0,0,0,258,301a2.51,2.51,0,0,0,1.57.48,2.17,2.17,0,0,0,2.37-2.1,1.83,1.83,0,0,0-1.79-1.95,1.93,1.93,0,0,0-.53.07l1.46-1.73Zm.26,2.86a.8.8,0,0,1,0,1.6.8.8,0,0,1,0-1.6Z" transform="translate(-176.2 -227.38)"/><path class="cls-2" d="M265.48,299.77c0,1.1,1.1,1.69,2.13,1.69a1.92,1.92,0,0,0,2.12-1.69,1.5,1.5,0,0,0-1-1.42,1.35,1.35,0,0,0,.73-1.21,1.93,1.93,0,0,0-3.81,0,1.35,1.35,0,0,0,.73,1.21A1.5,1.5,0,0,0,265.48,299.77Zm2.13-2.07a.52.52,0,0,1,0-1,.52.52,0,0,1,0,1Zm0,2.46a.56.56,0,0,1-.56-.57.56.56,0,1,1,1.11,0A.56.56,0,0,1,267.61,300.16Z" transform="translate(-176.2 -227.38)"/><path class="cls-3" d="M296,279.43c0-12.59,6.84-20.37,18.9-20.37s18.83,7.78,18.83,20.37-6.84,20.37-18.83,20.37S296,292,296,279.43Zm27.68,0c0-12.39-2.75-17.15-8.78-17.15S306,267,306,279.43s2.74,17.15,8.84,17.15S323.64,291.76,323.64,279.43Z" transform="translate(-176.2 -227.38)"/><path class="cls-3" d="M352.58,297.05l-.87,2.08H335.36v-1.88l2.75-1.2V277.76l-2.82-4.43v-.73l10.12-3.35h1.41l-.2,6.83h.26c1.35-3.42,4-6.83,8.38-6.83,3.55,0,5.7,2.07,5.7,5.36a4.58,4.58,0,0,1-4.63,4.89,4.37,4.37,0,0,1-4.62-4.69,13.43,13.43,0,0,0-4.83,4.29v16.68Z" transform="translate(-176.2 -227.38)"/><path class="cls-3" d="M377.37,294.17a10.54,10.54,0,0,0,7.24-2.61l1.27,1.47c-2.15,4.83-6.23,6.77-11.93,6.77-7.64,0-13.67-4.89-13.67-14.87s6.84-15.68,15-15.68c6.56,0,11.12,3.82,11.12,10.85a19.53,19.53,0,0,1-.34,3.82H368.86C369,290,371.67,294.17,377.37,294.17ZM369,280.77h9.45a11.09,11.09,0,0,0,.2-2.48c0-3.15-.87-6-4-6C371.67,272.33,369.53,275.08,369,280.77Z" transform="translate(-176.2 -227.38)"/><path class="cls-3" d="M407.79,293.3c6.36,0,10.38,3.08,10.38,9.51,0,8.18-8.11,11.19-16.95,11.19-8.17,0-14.2-1.87-14.2-7,0-3.82,3-5.56,7.57-6.23v-.2c-3.82-.47-6-2.68-6-6.17s2.62-5.56,6.3-6.3c-3.82-1.34-6.23-4-6.23-8.37,0-5.9,4.42-10.45,12.87-10.45a25.65,25.65,0,0,1,10.72,2.21,2.84,2.84,0,0,1-.41-1.61,3.43,3.43,0,0,1,3.69-3.48,3.55,3.55,0,0,1,3.68,3.81,3.73,3.73,0,0,1-4.08,4,15.25,15.25,0,0,1-5.3-1.41v.67a6.76,6.76,0,0,1,4,6.37c0,6.43-6.44,9.31-12.33,9.31a15.67,15.67,0,0,1-4.09-.47c-1.41.47-2.48,1.21-2.48,2.68s.81,2,2.41,2Zm-13.4,12.53c0,3.55,2.61,5.23,7.23,5.23,5.3,0,9.32-1.48,9.32-5.7,0-2.55-1.34-4.09-5.3-4.09H397.2A4.93,4.93,0,0,0,394.39,305.83Zm6.9-33.57c-3.42,0-4,2.62-4,7s.6,6.9,4,6.9,4.08-2.61,4.08-6.9S404.77,272.26,401.29,272.26Z" transform="translate(-176.2 -227.38)"/><path class="cls-3" d="M431.64,299.8c-9.05,0-15-5.16-15-15.28s6-15.27,15-15.27,15,5.16,15,15.27S440.68,299.8,431.64,299.8Zm0-3.08c4.49,0,5.69-4.42,5.69-12.2s-1.2-12.19-5.69-12.19-5.7,4.42-5.7,12.19S427.15,296.72,431.64,296.72Z" transform="translate(-176.2 -227.38)"/><path class="cls-3" d="M481.82,297.19l-.87,1.94H466.28v-1.88L469,296V281.37c0-4.35-2.27-5.83-4.75-5.83a7.79,7.79,0,0,0-5.3,2.28v18.09l4,1.28-.87,1.94H447.45v-1.88l2.75-1.2V277.69l-2.82-4.42v-.74l10.12-3.28h1.41l-.2,5.83H459a11.5,11.5,0,0,1,10.25-5.83c4.9,0,8.65,3.41,8.65,10.25v16.41Z" transform="translate(-176.2 -227.38)"/><path class="cls-3" d="M508.82,291.16c0-3.62-1.88-5.36-6.3-7.11l-4.82-2c-5-2-7.84-5.36-7.84-11.52,0-8,6.16-11.46,12.66-11.46a27.08,27.08,0,0,1,8.51,1.48l3.28-1.48.61,11.12-1.81.41-3.22-4.22c-2-2.82-4.08-4.29-7.57-4.29-3.15,0-5.29,2-5.29,5.09s1.4,4.89,5.43,6.5l5,2c6.3,2.48,9,6.1,9,12.26,0,8-6.1,11.86-13.27,11.86a18.6,18.6,0,0,1-9.25-2.14l-3.62,2.14-1.13-12.73,2.07-.4,3.29,4.75c2.21,3.42,4.69,5.23,8.5,5.23C506.68,296.65,508.82,294.64,508.82,291.16Z" transform="translate(-176.2 -227.38)"/><path class="cls-3" d="M517.06,271.19,527.78,262h2v7.91h8.84l-.47,3.48h-8.3v15.81c0,3.89,1.47,5.36,4.15,5.36a9.72,9.72,0,0,0,5-1.4l.67,1.6a11.17,11.17,0,0,1-9.72,5c-5.22,0-8.84-2.61-8.84-9.45v-17h-4Z" transform="translate(-176.2 -227.38)"/><path class="cls-3" d="M565,292.7c0,3,1.08,3.68,4.22,3.35l.21,1.34c-1.68,1.61-3.89,2.41-7,2.41-2.88,0-5.29-1.21-5.83-4.29l-.2-.07c-1.41,3-4.49,4.36-8.11,4.36-4.49,0-8.17-2.48-8.17-8,0-5.9,4.69-8.78,12.13-8.78a17.69,17.69,0,0,1,4,.54V281c0-3.88-2.48-5.83-6.44-5.83a16.08,16.08,0,0,0-8,2l-.8-1.94c2.88-3.89,7.5-6,13-6s11,2.48,11,10.65Zm-10.25-6.64c-4,0-6.23,1-6.23,4.56,0,2.48,1.48,4.15,3.82,4.15a5.41,5.41,0,0,0,3.89-1.4v-7.31Z" transform="translate(-176.2 -227.38)"/><path class="cls-3" d="M566.17,271.19,576.89,262h2v7.91h8.84l-.47,3.48H579v15.81c0,3.89,1.47,5.36,4.15,5.36a9.72,9.72,0,0,0,5-1.4l.67,1.6a11.17,11.17,0,0,1-9.72,5c-5.22,0-8.84-2.61-8.84-9.45v-17h-4Z" transform="translate(-176.2 -227.38)"/><path class="cls-3" d="M605.23,294.17a10.5,10.5,0,0,0,7.23-2.61l1.28,1.47c-2.15,4.83-6.23,6.77-11.93,6.77-7.64,0-13.67-4.89-13.67-14.87s6.84-15.68,14.94-15.68c6.57,0,11.13,3.82,11.13,10.85a19.53,19.53,0,0,1-.34,3.82H596.72C596.85,290,599.53,294.17,605.23,294.17Zm-8.38-13.4h9.45a11.73,11.73,0,0,0,.2-2.48c0-3.15-.87-6-4-6C599.53,272.33,597.39,275.08,596.85,280.77Z" transform="translate(-176.2 -227.38)"/><path class="cls-2" d="M330.07,338.79c0,9.78-6.5,14.74-15,14.74-9,0-15.28-3.62-15.28-14V317.14l-4.95-1.54.46-2.14h15.15l.53,2.14-5,1.54v21.44c0,7.64,3.21,11.19,9.65,11.19,6.23,0,10.52-3.55,10.52-11.65v-21l-5-1.54.54-2.14h12.93l.53,2.14-5,1.54Z" transform="translate(-176.2 -227.38)"/><path class="cls-2" d="M364.57,350.91l-.87,1.95H350.84V351l3.15-1.14V333.29c0-4.29-2.68-5.16-5-5.16a11.12,11.12,0,0,0-6.84,2.68v18.83l4.69,1.27-.87,1.95H333.15V351l3.15-1.07v-19.5l-3.22-3.62v-.73l8-3.09h1l-.2,5.7h.26A11.32,11.32,0,0,1,352,323c3.88,0,7.9,2.35,7.9,9.18v17.49Z" transform="translate(-176.2 -227.38)"/><path class="cls-2" d="M379,350.91l-.87,1.95H365.31V351l3.15-1.07v-19.5l-3.22-3.62v-.73l8-3.09h1.07v26.67ZM371.34,310a4.16,4.16,0,1,1-4.16,4.16A4.09,4.09,0,0,1,371.34,310Z" transform="translate(-176.2 -227.38)"/><path class="cls-2" d="M399.34,327.06l-4.42-1.47.4-1.95h10.86l.4,1.95-3.08,1.27-10.19,26H390l-10.65-25.67-2.88-1.8.47-1.75h12.33l.47,2-4.29,1.08,4.69,11.79a51.32,51.32,0,0,1,2.41,8.1h.27a61.56,61.56,0,0,1,2.48-8.17Z" transform="translate(-176.2 -227.38)"/><path class="cls-2" d="M419.24,349.17a13.31,13.31,0,0,0,8.31-2.75l.87,1.54c-2.41,3.69-5.83,5.57-11,5.57-7.17,0-12.86-5-12.86-15s6.3-15.55,13.8-15.55c6,0,10.39,3.76,10.39,10.52a16.51,16.51,0,0,1-.34,3.49H410.2C410.2,344.68,413.61,349.17,419.24,349.17ZM410.4,334.1h12.26a15.65,15.65,0,0,0,.07-1.81c0-4.22-1.68-6.44-5.16-6.44C414.35,325.85,411.34,328.4,410.4,334.1Z" transform="translate(-176.2 -227.38)"/><path class="cls-2" d="M444.9,350.85l-.87,2h-14.2V351l3.15-1.07v-19.5l-3.22-3.62v-.73l8-3.09h1l-.21,6.9h.27c1.68-3.75,4.69-7,8.51-7,3.15,0,5,1.74,5,4.35a3.79,3.79,0,0,1-3.89,4.09c-2.41,0-3.82-1.74-3.82-4.09-2.27.87-4.08,2.88-5.76,5.36v17Z" transform="translate(-176.2 -227.38)"/><path class="cls-2" d="M454.08,343.41c2.82,6,5.43,7.57,9.05,7.57,3,0,5-1.07,5-4.22,0-2.55-1.47-3.95-4.82-5.09l-3.82-1.34c-4-1.41-6.63-3.89-6.63-8.85,0-5.76,4.15-8.51,9.78-8.51a14.07,14.07,0,0,1,5.36,1.21l3.21-1.14.54,8.58-1.41.47c-2.88-5-5.22-6.37-8.1-6.37s-4.56,1.61-4.56,4,1.21,3.95,4.49,5.09l3.82,1.28c4.42,1.54,7.17,3.88,7.17,9,0,6-4.49,8.45-10.46,8.45a15.82,15.82,0,0,1-6.63-1.55l-3,1.55-.61-9.65Z" transform="translate(-176.2 -227.38)"/><path class="cls-2" d="M488.72,350.91l-.87,1.95H475V351l3.15-1.07v-19.5l-3.21-3.62v-.73l8-3.09H484v26.67ZM481,310a4.16,4.16,0,1,1-4.15,4.16A4.09,4.09,0,0,1,481,310Z" transform="translate(-176.2 -227.38)"/><path class="cls-2" d="M487.24,324.92l8.38-9.25H497v8h9.78l-.47,3.15H497v17.42c0,3.75,1.61,5.3,4.42,5.3a11.37,11.37,0,0,0,5.43-1.41l.67,1.67c-2.21,2.42-4.76,3.76-9.11,3.76s-7.31-2.35-7.31-8.31V326.79h-3.82Z" transform="translate(-176.2 -227.38)"/><path class="cls-2" d="M506.81,327.19l-2.88-1.8.46-1.75h12.4l.47,2L513,326.73l4.76,12.59a37.59,37.59,0,0,1,2.21,8.51h.27s1.14-4.29,2.54-8.58l4-12.19-4.43-1.47.41-1.95h10.72l.4,1.95-3.08,1.27-9.32,25.39c-4.22,11.46-7.77,15.08-13.26,15.08-3.49,0-5.36-2-5.36-4.56a3.57,3.57,0,0,1,3.82-3.88A3.27,3.27,0,0,1,510,362.3a4,4,0,0,1-.67,2.28c2.68,0,6.17-4.89,8-10.72Z" transform="translate(-176.2 -227.38)"/></svg>