<svg xmlns="http://www.w3.org/2000/svg" viewBox="0 0 200 72.118"><defs><style>.cls-1{fill:#e20613;}.cls-2{fill:#fff;}</style></defs><title>Asset 8</title><g id="Layer_2" data-name="Layer 2"><g id="Layer_1-2" data-name="Layer 1"><path class="cls-1" d="M86.671,17.222a8.526,8.526,0,1,0-2.932,1.389l.926,1.321a.7.7,0,0,0,.585.41h3.084c.228,0,.333-.184.237-.41Zm-9.98-6.776a5,5,0,1,1,8.022,3.982l-.435-.62a.7.7,0,0,0-.585-.41H80.609c-.227,0-.333.184-.237.41l1.144,1.631a5,5,0,0,1-4.825-4.993"/><path class="cls-1" d="M98.439,18.8a6.206,6.206,0,0,1-6.468-6.217V2.914a.578.578,0,0,1,.563-.563H94.7a.564.564,0,0,1,.563.563V12.42a3,3,0,0,0,3.176,3.152,3.027,3.027,0,0,0,3.2-3.129V2.914a.564.564,0,0,1,.563-.563h2.165a.578.578,0,0,1,.563.563v9.665A6.218,6.218,0,0,1,98.439,18.8"/><path class="cls-1" d="M116.7,18.568h-9.278a.565.565,0,0,1-.564-.563V2.914a.564.564,0,0,1,.564-.563H116.7a.563.563,0,0,1,.563.563V4.783a.564.564,0,0,1-.563.564h-6.618V8.825h5.5a.578.578,0,0,1,.563.563v1.893a.564.564,0,0,1-.563.563h-5.5v3.729H116.7a.563.563,0,0,1,.563.562v1.87a.564.564,0,0,1-.563.563"/><path class="cls-1" d="M129.2,18.568h-9.278a.564.564,0,0,1-.563-.563V2.914a.564.564,0,0,1,.563-.563H129.2a.563.563,0,0,1,.563.563V4.783a.564.564,0,0,1-.563.564h-6.618V8.825h5.5a.577.577,0,0,1,.562.563v1.893a.563.563,0,0,1-.562.563h-5.5v3.729H129.2a.563.563,0,0,1,.563.562v1.87a.564.564,0,0,1-.563.563"/><path class="cls-1" d="M145.153,18.8h-.319a.635.635,0,0,1-.48-.2L135.184,8.49v9.515a.563.563,0,0,1-.563.563h-2.074a.579.579,0,0,1-.564-.563V2.663a.561.561,0,0,1,.564-.54h.342a.634.634,0,0,1,.479.2l9.124,9.729V2.914a.564.564,0,0,1,.564-.563h2.1a.578.578,0,0,1,.563.563V18.256a.559.559,0,0,1-.563.54"/><path class="cls-1" d="M148.682,7.067a.628.628,0,0,1-.313-.111l-.6-.429c-.1-.074-.288-.281,0-.661A4.416,4.416,0,0,0,148.8,3.349a1.456,1.456,0,0,0-.014-.212,1.45,1.45,0,0,1-2.067-1.465A1.689,1.689,0,0,1,148.5,0c1.012,0,2.032.818,2.032,2.648A6.968,6.968,0,0,1,148.976,6.9a.357.357,0,0,1-.294.163"/><path class="cls-1" d="M156.346,18.8a7.267,7.267,0,0,1-5.1-1.809.558.558,0,0,1-.142-.847l.822-1.414a.638.638,0,0,1,.434-.317.678.678,0,0,1,.533.12,5.372,5.372,0,0,0,3.362,1.386,1.788,1.788,0,0,0,1.945-1.626c0-1.035-.842-1.816-2.815-2.615-1.874-.757-4.366-2.1-4.366-5.044,0-2.17,1.646-4.507,5.259-4.507a8.2,8.2,0,0,1,4.638,1.553.614.614,0,0,1,.258.4.692.692,0,0,1-.093.532l-.865,1.3a.951.951,0,0,1-.424.356.58.58,0,0,1-.554-.046l-.168-.105a5.391,5.391,0,0,0-2.929-1.127c-1.3,0-1.875.736-1.875,1.465,0,.974.756,1.678,2.609,2.433,2.4.964,4.845,2.343,4.845,5.272,0,2.252-1.884,4.644-5.373,4.644"/><path class="cls-1" d="M101.987,40.491h-.319a.633.633,0,0,1-.48-.2L92.019,30.184V39.7a.564.564,0,0,1-.563.563H89.381a.578.578,0,0,1-.563-.563V24.358a.56.56,0,0,1,.563-.54h.342a.629.629,0,0,1,.479.2l9.125,9.729V24.609a.563.563,0,0,1,.563-.563h2.1a.578.578,0,0,1,.563.563V39.951a.559.559,0,0,1-.563.54"/><path class="cls-1" d="M108.348,40.265h-2.12a.579.579,0,0,1-.563-.564V24.61a.577.577,0,0,1,.563-.562h2.12a.577.577,0,0,1,.563.562V39.7a.579.579,0,0,1-.563.564"/><path class="cls-1" d="M118.7,40.493h-.228a.54.54,0,0,1-.5-.323l0,0-7.044-15.342a.546.546,0,0,1,.023-.531.556.556,0,0,1,.483-.246h2.325a.547.547,0,0,1,.509.333l4.336,9.659,4.338-9.664a.543.543,0,0,1,.506-.328h2.325a.556.556,0,0,1,.483.246.548.548,0,0,1,.023.532l-7.068,15.341a.541.541,0,0,1-.505.327"/><path class="cls-1" d="M138.007,40.3h-9.278a.565.565,0,0,1-.564-.563V24.644a.564.564,0,0,1,.564-.563h9.278a.563.563,0,0,1,.563.563v1.869a.564.564,0,0,1-.563.564h-6.618v3.478h5.5a.577.577,0,0,1,.563.563V33.01a.564.564,0,0,1-.563.563h-5.5V37.3h6.618a.563.563,0,0,1,.563.562v1.87a.564.564,0,0,1-.563.563"/><path class="cls-1" d="M152.71,40.3h-2.393a.519.519,0,0,1-.482-.277l-3-5.969h-2.32v5.682a.578.578,0,0,1-.564.564h-2.1a.564.564,0,0,1-.563-.564V24.644a.564.564,0,0,1,.563-.563h6.52a5.072,5.072,0,0,1,5.1,5.031,5.127,5.127,0,0,1-3.321,4.67l3.054,5.663a.6.6,0,0,1,0,.587.562.562,0,0,1-.5.266m-8.167-8.945h3.585a2.192,2.192,0,0,0,2.127-2.2,2.133,2.133,0,0,0-2.127-2.081h-3.585Z"/><path class="cls-1" d="M160.685,40.526a7.263,7.263,0,0,1-5.1-1.809.558.558,0,0,1-.143-.847l.822-1.414a.64.64,0,0,1,.435-.317.68.68,0,0,1,.532.119,5.373,5.373,0,0,0,3.362,1.387,1.787,1.787,0,0,0,1.945-1.626c0-1.034-.842-1.817-2.814-2.615-1.875-.757-4.367-2.1-4.367-5.045,0-2.17,1.646-4.506,5.26-4.506a8.2,8.2,0,0,1,4.637,1.553.607.607,0,0,1,.258.4.686.686,0,0,1-.093.532l-.865,1.3a.966.966,0,0,1-.424.357.585.585,0,0,1-.554-.047l-.167-.105a5.391,5.391,0,0,0-2.929-1.127c-1.3,0-1.876.736-1.876,1.465,0,.973.756,1.678,2.609,2.433,2.4.963,4.845,2.343,4.845,5.272,0,2.252-1.883,4.644-5.373,4.644"/><path class="cls-1" d="M171.488,40.3h-2.12a.579.579,0,0,1-.564-.563V24.644a.579.579,0,0,1,.564-.563h2.12a.578.578,0,0,1,.563.563V39.735a.578.578,0,0,1-.563.563"/><path class="cls-1" d="M180.385,40.265h-2.12a.579.579,0,0,1-.564-.564V27.043h-3.358a.564.564,0,0,1-.562-.564V24.61a.563.563,0,0,1,.562-.562h9.963a.563.563,0,0,1,.563.562v1.869a.564.564,0,0,1-.563.564h-3.358V39.7a.579.579,0,0,1-.563.564"/><path class="cls-1" d="M194.1,40.265H192a.565.565,0,0,1-.564-.564V32.492l-5.174-7.581a.569.569,0,0,1-.026-.584.557.557,0,0,1,.5-.279h2.325a.57.57,0,0,1,.469.257l3.543,5.093,3.54-5.09a.576.576,0,0,1,.473-.26h2.348a.556.556,0,0,1,.5.278.567.567,0,0,1-.021.581l-5.247,7.563V39.7a.579.579,0,0,1-.563.564"/><path class="cls-1" d="M79.672,40.527a6.185,6.185,0,0,1-6.445-6.195V24.65a.545.545,0,0,1,.531-.532h2.169a.532.532,0,0,1,.532.532v9.522a3.032,3.032,0,0,0,3.213,3.191A3.065,3.065,0,0,0,82.909,34.2V24.65a.533.533,0,0,1,.532-.532H85.61a.546.546,0,0,1,.532.532v9.682a6.2,6.2,0,0,1-6.47,6.2"/><path class="cls-1" d="M80.832,52.006a3.7,3.7,0,0,0,2.084-3.394c0-2.255-1.869-3.974-4.468-3.974H73.636a.408.408,0,0,0-.408.408V59.267a.408.408,0,0,0,.408.408h5.048c2.707,0,4.683-1.741,4.683-4.146a3.63,3.63,0,0,0-2.535-3.479Zm-5.413-.838V46.657h2.814a2.088,2.088,0,0,1,2.3,2.212,2.186,2.186,0,0,1-2.3,2.3ZM75.4,57.7V53.1h3.351a2.2,2.2,0,0,1,2.233,2.256A2.137,2.137,0,0,1,78.749,57.7Z"/><path class="cls-1" d="M85.058,59.266a.408.408,0,0,0,.408.408h8.592a.407.407,0,0,0,.408-.408V58.084a.407.407,0,0,0-.408-.407H87.271V53.058h5.735a.408.408,0,0,0,.408-.408v-1.2a.422.422,0,0,0-.408-.407H87.271V46.657h6.787a.407.407,0,0,0,.408-.408v-1.2a.407.407,0,0,0-.408-.407H85.466a.407.407,0,0,0-.408.407Z"/><path class="cls-1" d="M96.781,59.266a.408.408,0,0,0,.408.408h7.647a.408.408,0,0,0,.408-.408V58.084a.407.407,0,0,0-.408-.407H99.015V45.046a.422.422,0,0,0-.408-.407H97.189a.407.407,0,0,0-.408.407Z"/><path class="cls-1" d="M106.893,59.266a.408.408,0,0,0,.408.408h1.4a.423.423,0,0,0,.408-.408V53.617h5.735a.422.422,0,0,0,.408-.408V52.027a.422.422,0,0,0-.408-.407h-5.735V46.657h6.787a.407.407,0,0,0,.408-.408v-1.2a.407.407,0,0,0-.408-.407H107.3a.407.407,0,0,0-.408.407Z"/><path class="cls-1" d="M115.888,59.675h1.353a.539.539,0,0,0,.494-.322l1.311-2.943h7.023l1.332,2.943a.5.5,0,0,0,.494.322h1.353a.38.38,0,0,0,.366-.559L123.062,44.66a.5.5,0,0,0-.365-.237h-.215a.5.5,0,0,0-.365.237l-6.595,14.456a.38.38,0,0,0,.366.559m3.995-5.113,2.621-5.885h.107l2.642,5.885Z"/><path class="cls-1" d="M131.2,58.193a6.962,6.962,0,0,0,4.618,1.7c2.793,0,4.79-1.827,4.79-4.06,0-2.621-2.127-3.8-4.618-4.812-1.783-.73-2.728-1.482-2.728-2.707,0-.794.623-1.932,2.427-1.932a5.05,5.05,0,0,1,2.9,1.073.508.508,0,0,0,.752-.215l.537-.816a.51.51,0,0,0-.129-.73,7.272,7.272,0,0,0-3.974-1.268c-3.415,0-4.7,2.3-4.7,3.975,0,2.491,1.718,3.629,3.909,4.553,2.127.881,3.244,1.7,3.244,2.986a2.164,2.164,0,0,1-2.427,2,4.74,4.74,0,0,1-3.437-1.481.484.484,0,0,0-.731.172l-.558.88c-.237.365-.065.515.129.688"/><path class="cls-1" d="M145.327,59.266a.423.423,0,0,0,.409.408h1.417a.423.423,0,0,0,.409-.408V46.657h3.5a.408.408,0,0,0,.408-.408v-1.2a.407.407,0,0,0-.408-.407h-9.237a.407.407,0,0,0-.408.407v1.2a.408.408,0,0,0,.408.408h3.5Z"/><path class="cls-1" d="M0,.205V40.338a31.78,31.78,0,1,0,63.559,0V.205Z"/><path class="cls-2" d="M60.069,3.7H54.453L31.78,26.368h0L9.106,3.7H3.49v6.413L25.765,32.382,6.053,52.094a28.1,28.1,0,0,0,4.788,7.242L31.779,38.4h0L52.718,59.336a28.1,28.1,0,0,0,4.788-7.242L37.794,32.382,60.069,10.108Z"/><path class="cls-1" d="M37.046,31.021c-.848-.618-1.626.762-1.626.762-.532-.722-1.045.06-1.045.06.719.5.656,1.661-.7,1.367a1.842,1.842,0,0,1-1.509-1.471l1.021.374v-1.7l-.975.364.327-1.192H31l.326,1.192-.975-.364v1.7l1.021-.374a1.842,1.842,0,0,1-1.509,1.471c-1.361.294-1.423-.871-.7-1.367,0,0-.512-.782-1.044-.06,0,0-.778-1.38-1.626-.762,0,0,1.2,1.478,1.344,5.414a7.7,7.7,0,0,1,3.934-.7,7.7,7.7,0,0,1,3.933.7c.147-3.936,1.344-5.414,1.344-5.414"/><path class="cls-1" d="M27.228,30.325a1.353,1.353,0,0,1,.252.083,4.748,4.748,0,0,1,8.6,0,1.353,1.353,0,0,1,.252-.083,1.254,1.254,0,0,1,.774.077A5.7,5.7,0,0,0,32.657,26.8l-.877.878h0L30.9,26.8A5.7,5.7,0,0,0,26.454,30.4,1.253,1.253,0,0,1,27.228,30.325Z"/><path class="cls-1" d="M31.769,36.907h0l1.066,1.067c1.437-.1,2.479-.406,2.479-.765,0-.443-1.587-.8-3.545-.8s-3.545.359-3.545.8c0,.359,1.041.663,2.478.765l1.067-1.067Z"/><path class="cls-2" d="M38.69,4.893a.984.984,0,0,1,.984.983V16.559H32.883a1.168,1.168,0,0,1-1.1.8h0a1.169,1.169,0,0,1-1.1-.8h-6.79V5.876a.983.983,0,0,1,.984-.983V15.581h5.843a1.1,1.1,0,0,1,1.068.974,1.1,1.1,0,0,1,1.068-.974H38.69V4.893m-3.736-.458a3.5,3.5,0,0,0,2.739.459V14.61a3.5,3.5,0,0,1-2.739-.459c-1.117-.876-3.148-.146-3.174.9v.01l0,.009v-.019c-.025-1.044-2.057-1.774-3.174-.9a3.494,3.494,0,0,1-2.738.459V4.894A3.494,3.494,0,0,0,28.6,4.435c1.121-.878,3.163-.141,3.176.908.012-1.049,2.054-1.786,3.174-.908m-4.616,6.853a2.187,2.187,0,0,0-1.712.225,2.619,2.619,0,0,1-1.555.428v.7a2.611,2.611,0,0,0,1.555-.428,2.187,2.187,0,0,1,1.712-.225Zm0-2.611a2.181,2.181,0,0,0-1.712.224,2.607,2.607,0,0,1-1.555.427v.7A2.607,2.607,0,0,0,28.626,9.6a2.187,2.187,0,0,1,1.712-.225Zm0-2.613a2.187,2.187,0,0,0-1.712.225,2.615,2.615,0,0,1-1.555.427v.7a2.615,2.615,0,0,0,1.555-.427,2.187,2.187,0,0,1,1.712-.225Zm6.15,5.877a2.619,2.619,0,0,1-1.555-.428,2.187,2.187,0,0,0-1.712-.225v.7a2.187,2.187,0,0,1,1.712.225,2.611,2.611,0,0,0,1.555.428Zm0-2.613A2.607,2.607,0,0,1,34.933,8.9a2.181,2.181,0,0,0-1.712-.224v.7a2.187,2.187,0,0,1,1.712.225,2.607,2.607,0,0,0,1.555.427Zm0-2.612a2.615,2.615,0,0,1-1.555-.427,2.187,2.187,0,0,0-1.712-.225v.7a2.187,2.187,0,0,1,1.712.225,2.615,2.615,0,0,0,1.555.427Z"/><path class="cls-2" d="M21.211,61.931a.083.083,0,0,1,.082-.084h1.789a.084.084,0,0,1,.083.084v.36a.083.083,0,0,1-.083.083h-1.3V63.1h1.084a.086.086,0,0,1,.084.083v.365a.084.084,0,0,1-.084.083H21.782v.768h1.3a.084.084,0,0,1,.083.084v.36a.083.083,0,0,1-.083.083H21.293a.083.083,0,0,1-.082-.083ZM24.2,64.623a1.406,1.406,0,0,0,.966.342.927.927,0,0,0,1.01-.869c0-.567-.492-.821-.918-.993-.356-.145-.518-.285-.518-.491a.35.35,0,0,1,.386-.308,1.437,1.437,0,0,1,.61.242.117.117,0,0,0,.155-.053l.166-.25a.107.107,0,0,0-.026-.145,1.545,1.545,0,0,0-.878-.294.876.876,0,0,0-.988.843c0,.518.412.782.825.948.369.15.558.3.558.528a.367.367,0,0,1-.4.338,1.446,1.446,0,0,1-.664-.273.1.1,0,0,0-.149.031l-.158.273c-.04.07-.017.092.022.131m3.492.215a.085.085,0,0,0,.083.083h.41a.086.086,0,0,0,.083-.083V62.374h.671a.083.083,0,0,0,.084-.083v-.36a.084.084,0,0,0-.084-.084H27.025a.084.084,0,0,0-.084.084v.36a.084.084,0,0,0,.084.083H27.7Zm5.18,0a.083.083,0,0,0,.082.083h.379a.082.082,0,0,0,.079-.083V62.019a.082.082,0,0,0-.079-.083H33.03l-.633.531a.092.092,0,0,0-.022.079l.026.215a.073.073,0,0,0,.088.057l.387-.084Zm1.558-.716a.984.984,0,0,1,.531-.733v-.013a.825.825,0,0,1-.453-.681.978.978,0,0,1,1.924,0,.844.844,0,0,1-.453.676v.018a.9.9,0,0,1,.532.733c0,.479-.4.844-1.05.844-.628,0-1.031-.365-1.031-.844m1.04-.987c.272-.063.4-.229.4-.418a.4.4,0,0,0-.8,0c0,.2.123.352.4.418m-.457.979a.46.46,0,0,0,.913,0,.457.457,0,1,0-.913,0m2.328.171a.084.084,0,0,1-.084-.083v-.365l1.581-1.924a.094.094,0,0,1,.067-.025h.237a.083.083,0,0,1,.084.083v1.87h.35a.081.081,0,0,1,.084.08v.272a.084.084,0,0,1-.084.083h-.35l0,.562a.086.086,0,0,1-.083.084h-.364a.087.087,0,0,1-.084-.084v-.553H37.345m1.375-.456V62.774l-.879,1.055Zm1.7.772a1.123,1.123,0,0,0,.865.365,1.027,1.027,0,0,0,1.063-1.006.93.93,0,0,0-1-.975h-.378V62.4h.975a.083.083,0,0,0,.083-.084v-.3a.083.083,0,0,0-.083-.083H40.552a.082.082,0,0,0-.083.083v1.3a.145.145,0,0,0,.136.153h.676a.481.481,0,0,1,.531.492.508.508,0,0,1-.509.518.943.943,0,0,1-.567-.246.075.075,0,0,0-.1,0l-.22.215c-.053.052-.048.083.009.149M29.988,64.58a.349.349,0,1,0,.348-.349.347.347,0,0,0-.348.349m.471-.671a1.034,1.034,0,1,0,0-2.067H29.8a.111.111,0,0,0-.108.111V63.8a.109.109,0,0,0,.108.109h.661M30.166,62.3h.26a.58.58,0,0,1,0,1.159h-.26Z"/><path class="cls-2" d="M16.034,27.96a.92.92,0,0,0-1.84,0v4.352s-2.543-.3-3.967,2.758c0,0,1.037-3.274,3.45-3.346,0,0,.005-8.126.005-8.134a.829.829,0,1,0-1.657,0v5.933s.551.1.682.145c0,0-.466-.041-.682-.049-.165-.006-.329-.01-.49-.006V22.592a.828.828,0,1,0-1.655,0v7.141c-.165.017-.32.034-.472.052V24.074a.751.751,0,1,0-1.5,0v5.957c-.658.116-1.119.216-1.191.239q.356-.16.705-.286V26.446a.623.623,0,0,0-.623-.623.611.611,0,0,0-.609.623v7.538c.067,1.729.547,5.006,3.357,4.978a2.055,2.055,0,0,1-1.528-.139,3.107,3.107,0,0,1-.009.734,2.542,2.542,0,0,0,.17,1.3h5.041s-.682-1.709.929-3.979c0,0,1.885-2.639,1.885-4.563ZM8.028,34.072c2.646-4.427,5.093-3.113,5.093-3.113C10.267,30.767,8.286,33.672,8.028,34.072Z"/><path class="cls-2" d="M51.8,27.616A1.828,1.828,0,0,0,53.819,26.1s.1,1.8,1.771.845c0,0-.159,1.831,1.587.968,0,0-.383,1.482.968,1.3,0,0,3.389-8.034-5.652-6.2a4.906,4.906,0,0,1,5.022-.333s-2.345-3.437-7.545-.417a1.234,1.234,0,0,1,.6,1.6,3.218,3.218,0,0,0-.895,1.033c-.25.557-.036,2.207-2.128,2.307,0,0-.335,1.036,1.088,1.438.263.074.321.013.973-.527A4.008,4.008,0,0,1,51.8,27.616Zm-1.465-2.348c.173-.317.758.208.758.208s-.1-.012-.444.211C50.232,25.956,50.159,25.584,50.333,25.268Z"/><path class="cls-2" d="M56.171,31.751c.176-.238.95-.941.8-1.155-.573-.82-2.425-2.666-3.832-2.054-.464.2-1.164.581-1.418.688a4.073,4.073,0,0,0-2.239,2.06c-.927,2.09.678,3.961,2.2,5.212.8.652,1.628,1.26,2.417,1.921.582.486,1.313,1.283,1.031,2.118-.253.753-1.368,1.284-1.951.509a.847.847,0,0,1,.117-1.21c.433-.271.918.181,1.023.591a1.682,1.682,0,0,0-1.045-1.939,2.025,2.025,0,0,0-2.1,1,2.961,2.961,0,0,0,.934,3.867,3.058,3.058,0,0,0,3.945-.9,2.775,2.775,0,0,0,.246-2.618,5.192,5.192,0,0,0-1.916-2.012,9.349,9.349,0,0,1-2.162-2.194,4.244,4.244,0,0,1-.731-3.413,3.814,3.814,0,0,0,1.115,3.067,13.455,13.455,0,0,0,2.8,2.366,3.849,3.849,0,0,1,1.306,1.363,5.119,5.119,0,0,0-.873-2.2,1.821,1.821,0,0,0,1.127-.025c.527-.288-.088-.969-.328-1.228a2.167,2.167,0,0,0,1.791-1.326,3.368,3.368,0,0,0-.475-2.621C57.3,34.377,55.093,33.207,56.171,31.751Z"/><path class="cls-2" d="M30.828,49.389a7.932,7.932,0,0,1-.878.239l.181,7.054.646-.927Zm.922-.359a9.067,9.067,0,0,1-.869.342l.154,6.012.672-.965Zm.923-.462c-.12.06-.24.122-.362.187-.16.086-.329.168-.5.248l.13,5.082.7-1Zm.923-.43c-.271.117-.56.249-.86.4l.109,4.248.722-1.037Zm.922-.368c-.247.091-.536.2-.855.339l.086,3.378.748-1.075Zm.841-.28s-.3.084-.769.254l.063,2.445.706-1.014Zm-6.677,2.682a2.931,2.931,0,0,1-1.6-.45,11,11,0,0,0,2.854,8.65,1.017,1.017,0,0,0-.894-.254,1.044,1.044,0,0,0,.2,2.069,1.088,1.088,0,0,0,.68-.252,1.176,1.176,0,0,1,1.567.216h0A11.285,11.285,0,0,1,28.682,50.172Zm9.958-.622a1,1,0,0,1-1,1,.978.978,0,0,1-.6-.223l-.2.361.421.273-4.21,9.2H31.987a1.526,1.526,0,0,1-.315-.34l5.211-9.64h0L31.454,59.56a10.435,10.435,0,0,1-.985-1.4l6.3-9.081a1.034,1.034,0,0,1,.876-.522A1,1,0,0,1,38.64,49.55ZM38,47.348v1a1.252,1.252,0,0,0-1.313.357c-.421.6-5.928,8.485-6.387,9.142-.169-.311-.317-.623-.448-.934l.058-7.279a3.754,3.754,0,0,1-2.827-.332v-1.27s1.845,1.444,5.226.042,4.489-1.24,5.409-.72c0,0-1.516-1.213-4.93.273-3.489,1.52-5.3.3-5.915-.236l.009-1.75a5.143,5.143,0,0,0,5.811,1.241C36.23,45.44,38,47.348,38,47.348Z"/></g></g></svg>