<svg xmlns="http://www.w3.org/2000/svg" viewBox="0 0 200 82.355"><defs><style>.cls-1{fill:#003a65;}.cls-2{fill:#fff;}.cls-3{fill:#d60929;}</style></defs><title>Asset 7</title><g id="Layer_2" data-name="Layer 2"><g id="Layer_1-2" data-name="Layer 1"><path class="cls-1" d="M88.794,21.753c-4.7,0-7.761-3.349-7.761-8.295C81.033,8.605,84.3,5.1,89,5.1c4.466,0,7.266,3.165,7.266,8.479v.645H85.7c0,2.764,1.2,4.269,3.268,4.269a2.972,2.972,0,0,0,2.976-2.365l4.23.368C95.184,19.847,92.5,21.753,88.794,21.753Zm2.918-10.107c-.029-2.3-1.108-3.531-2.977-3.531-1.721,0-2.859,1.26-2.976,3.531Z"/><path class="cls-1" d="M192.528,21.753c-4.7,0-7.761-3.349-7.761-8.295,0-4.853,3.27-8.355,7.967-8.355C197.2,5.1,200,8.268,200,13.582v.645H189.436c0,2.764,1.2,4.269,3.267,4.269a2.974,2.974,0,0,0,2.978-2.365l4.233.368C198.92,19.847,196.236,21.753,192.528,21.753Zm2.921-10.107c-.03-2.3-1.111-3.531-2.978-3.531-1.721,0-2.859,1.26-2.975,3.531Z"/><path class="cls-1" d="M96.7,5.534h4.949l2.3,9.274,2.2-9.274h4.093l2.3,9.427,2.741-9.427h3.693l-4.549,15.789h-4.15l-2.612-10.261-2.609,10.261h-3.787Z"/><path class="cls-1" d="M127.325,8.3c-2,0-3.374,1.721-3.433,5.1s1.324,5.129,3.258,5.129a3.363,3.363,0,0,0,3.208-3.225l3.934.459c-.513,3.656-3.42,5.992-7.454,5.992-4.676,0-7.909-3.349-7.824-8.295.085-5.036,3.464-8.355,8.462-8.355,3.806,0,6.413,2.214,6.864,5.99l-4.076.43C130.008,9.435,128.711,8.3,127.325,8.3Z"/><path class="cls-1" d="M145.907,18.772a5.357,5.357,0,0,1-4.962,2.949c-3.269,0-5.25-1.905-5.25-4.823,0-3.716,3.383-5.681,10.123-5.742v-.677a2.193,2.193,0,0,0-2.509-2.426c-1.839,0-2.889.768-3.122,2.21L136.1,9.8c.7-3.1,3.208-4.7,7.439-4.7,4.728,0,6.568,1.843,6.568,6.174v7a7.91,7.91,0,0,0,.434,3.042H146.2A12.9,12.9,0,0,1,145.907,18.772Zm-5.6-2.149c0,1.289.816,2.057,2.275,2.057a3.383,3.383,0,0,0,3.238-3.686V13.582C142.169,13.643,140.305,14.749,140.305,16.623Z"/><path class="cls-1" d="M155.52,16.377c.379,1.443,1.69,2.272,3.647,2.272,1.662,0,2.6-.737,2.6-1.72,0-1.382-1.313-1.32-3.647-1.812-3.73-.766-5.6-2.027-5.6-4.884,0-2.949,2.391-5.16,6.361-5.16,3.239,0,5.428,1.444,6.361,4.116l-3.53.676A2.854,2.854,0,0,0,158.7,8.084c-1.459,0-2.246.552-2.246,1.567,0,1.38,1.518,1.319,4.347,1.934,3.415.736,5.077,1.966,5.077,4.73,0,3.1-2.628,5.343-7.087,5.343-3.619,0-6.188-1.811-6.917-4.76Z"/><path class="cls-1" d="M178.259,0h4.534V21.323h-4.534Z"/><path class="cls-1" d="M85.951,34.18a7.022,7.022,0,0,1,2.307-2.45,5.632,5.632,0,0,1,3.007-.817,4.715,4.715,0,0,1,2.419.575A4.026,4.026,0,0,1,95.253,33.3a6.385,6.385,0,0,1,.589,2.779v7.163a1.518,1.518,0,0,0,.357,1.141,1.692,1.692,0,0,0,1.191.337h1.022V45.88H90.706V44.723h.731a2.324,2.324,0,0,0,1.431-.327,1.191,1.191,0,0,0,.405-.982V37.147a5.811,5.811,0,0,0-.618-3.026,2.873,2.873,0,0,0-2.626-1.408,3.622,3.622,0,0,0-2.912,1.421,5.642,5.642,0,0,0-1.166,3.7v5.421a1.488,1.488,0,0,0,.363,1.134,1.754,1.754,0,0,0,1.2.333h1V45.88H80.683V44.723H81.7a1.848,1.848,0,0,0,1.159-.312.961.961,0,0,0,.4-.784V34.115a1.906,1.906,0,0,0-.5-1.429A2.012,2.012,0,0,0,81.3,32.2h-.746V31.171l5.2-.262Z"/><path class="cls-1" d="M98.717,31.235l5.908-.194V43.675a.936.936,0,0,0,.251.736,1.341,1.341,0,0,0,.912.312h1.664V45.88H99.037V44.723h1.556a1.34,1.34,0,0,0,1.012-.336,1.369,1.369,0,0,0,.32-.979V34.162a1.681,1.681,0,0,0-.5-1.324,2.184,2.184,0,0,0-1.493-.447H98.717Zm4.134-6.168a1.823,1.823,0,0,1,1.774,1.792,1.767,1.767,0,0,1-1.76,1.742,1.744,1.744,0,0,1-1.24-3A1.683,1.683,0,0,1,102.851,25.067Z"/><path class="cls-1" d="M163.76,31.235l5.906-.194V43.675a.929.929,0,0,0,.251.736,1.348,1.348,0,0,0,.912.312h1.663V45.88h-8.415V44.723h1.556a1.33,1.33,0,0,0,1.012-.336,1.361,1.361,0,0,0,.321-.979V34.162a1.683,1.683,0,0,0-.5-1.324,2.2,2.2,0,0,0-1.5-.447H163.76Zm4.131-6.168a1.7,1.7,0,0,1,1.24.535,1.723,1.723,0,0,1,.535,1.257,1.771,1.771,0,0,1-1.76,1.742,1.707,1.707,0,0,1-1.248-.525,1.777,1.777,0,0,1,1.233-3.009Z"/><path class="cls-1" d="M106.428,31.171h7.26v1.091a4.852,4.852,0,0,0-1.85.257.706.706,0,0,0-.4.649,1.819,1.819,0,0,0,.139.685l3.879,8.689,3.575-8.42a1.3,1.3,0,0,0,.076-.438c0-.76-.759-1.233-2.267-1.422V31.171h6.1v1.091a2.958,2.958,0,0,0-1.476.5,2.614,2.614,0,0,0-.853,1.085l-5.4,12.487h-.872L108.6,33.5a2.114,2.114,0,0,0-.765-.949,2.89,2.89,0,0,0-1.41-.287Z"/><path class="cls-1" d="M135.9,38.62H125.3q.081,3.364,1.27,4.743a4.408,4.408,0,0,0,3.467,1.555q3.109,0,5-3.469l1,.436q-2.3,4.448-6.631,4.447a6.58,6.58,0,0,1-4.972-2.137,7.655,7.655,0,0,1-2.018-5.473A8.335,8.335,0,0,1,124.4,32.93a6.324,6.324,0,0,1,4.891-2.209,6.221,6.221,0,0,1,3.689,1.1,6.611,6.611,0,0,1,2.34,3.156A10.649,10.649,0,0,1,135.9,38.62Zm-10.6-1.092h6.5a1.084,1.084,0,0,0,.892-.384,2.065,2.065,0,0,0,.32-1.313,4.218,4.218,0,0,0-1.094-2.936,3.378,3.378,0,0,0-2.586-1.21,3.476,3.476,0,0,0-2.818,1.463A7.151,7.151,0,0,0,125.3,37.528Z"/><path class="cls-1" d="M151.562,40.422a8.658,8.658,0,0,0,2.245,3.771,4.748,4.748,0,0,0,3.126,1.046,4.085,4.085,0,0,0,2.637-.751,2.373,2.373,0,0,0,.921-1.914,1.991,1.991,0,0,0-1.275-1.908,23.129,23.129,0,0,0-3.1-.723,12.866,12.866,0,0,1-3.334-.992,3.74,3.74,0,0,1-1.462-1.434,3.894,3.894,0,0,1-.525-1.983,4.513,4.513,0,0,1,1.08-2.937,4.782,4.782,0,0,1,3.9-1.684,5.744,5.744,0,0,1,3.539,1.234l1.034-1.106h.641l.41,5.267h-1.029a6.892,6.892,0,0,0-1.87-3.3,4.33,4.33,0,0,0-2.907-1.008,3.43,3.43,0,0,0-2.341.745,2.317,2.317,0,0,0-.846,1.813,1.918,1.918,0,0,0,.781,1.568,6.8,6.8,0,0,0,3.021,1,22.471,22.471,0,0,1,3.4.737,4.133,4.133,0,0,1,1.984,1.447,4,4,0,0,1,.7,2.384,4.214,4.214,0,0,1-1.526,3.285,5.7,5.7,0,0,1-3.888,1.346,6.527,6.527,0,0,1-4.046-1.432l-1.147,1.3h-.833l-.314-5.78Z"/><path class="cls-1" d="M183.331,31.171H190.4v1.091h-.663a2.384,2.384,0,0,0-1.269.238.789.789,0,0,0-.336.684.89.89,0,0,0,.1.4l4.118,8.8,3.078-7.295a3.926,3.926,0,0,0,.327-1.521,1.03,1.03,0,0,0-.453-.891,3.967,3.967,0,0,0-1.814-.413V31.171h6.1v1.091a2.6,2.6,0,0,0-2.337,1.554L191.72,46.479a12.566,12.566,0,0,1-2.809,4.422,4.591,4.591,0,0,1-3.035,1.211,2.739,2.739,0,0,1-1.9-.644,2.073,2.073,0,0,1-.719-1.591,1.612,1.612,0,0,1,.443-1.16,1.458,1.458,0,0,1,1.1-.458,1.4,1.4,0,0,1,1.009.389,1.25,1.25,0,0,1,.408.933,2.541,2.541,0,0,1-.062.467,1.439,1.439,0,0,0-.064.341c0,.251.161.374.489.374a2.4,2.4,0,0,0,1.176-.373,3.787,3.787,0,0,0,1.226-1.186,35.079,35.079,0,0,0,1.983-3.709l-5.573-11.914a2.289,2.289,0,0,0-.748-.913,3.178,3.178,0,0,0-1.315-.406Z"/><path class="cls-1" d="M60.764,0H66.55l8.075,13.158L74.619,0h4.514V21.319h-4.82l-9.031-14.8-.01,14.8H60.764Z"/><path class="cls-1" d="M58.083,24.526h9.644v1.157H66.111a1.919,1.919,0,0,0-1.2.283,1.049,1.049,0,0,0-.342.862V38.486a10.141,10.141,0,0,0,.361,3.1,4.7,4.7,0,0,0,1.947,2.478,6.653,6.653,0,0,0,3.7.924A6.563,6.563,0,0,0,75.4,43.353a5.879,5.879,0,0,0,1.658-4.381v-9.21a8.721,8.721,0,0,0-.2-2.143,2.745,2.745,0,0,0-.569-1.137,2.264,2.264,0,0,0-.94-.6,6.524,6.524,0,0,0-1.9-.2V24.526h8.815v1.157h-.625a2.829,2.829,0,0,0-2.2.792,3.317,3.317,0,0,0-.72,2.3v9.974A7.462,7.462,0,0,1,76.6,44.483a8.978,8.978,0,0,1-6.389,2.245,12.421,12.421,0,0,1-5.433-.98A6.084,6.084,0,0,1,61.9,42.929a8.037,8.037,0,0,1-.674-3.518V26.829a1.039,1.039,0,0,0-.368-.84,1.693,1.693,0,0,0-1.1-.306H58.083Z"/><path class="cls-1" d="M176.216,18.046a7.213,7.213,0,0,1-1.371.143c-1.568,0-1.9-.706-1.9-2.489V8.605h3.275V5.534h-3.275V.954l-4.576.838V5.534h-2.038V8.605h2.038v7.587c0,3.871,1.473,5.561,5.191,5.561a14.788,14.788,0,0,0,2.66-.27Z"/><path class="cls-1" d="M182.356,40.294a6.292,6.292,0,0,1-.879,3.333,2.224,2.224,0,0,1-1.821,1.007,1.857,1.857,0,0,1-1.474-.663,2.817,2.817,0,0,1-.582-1.912V32.448h4.616V31.173H177.6V25.064h-1.08a8.221,8.221,0,0,1-1.51,4.811,4.275,4.275,0,0,1-2.759,1.488v1.085h2.616V42.505a3.53,3.53,0,0,0,1.042,2.66,3.977,3.977,0,0,0,2.893,1.016,4.132,4.132,0,0,0,3.269-1.448,6.994,6.994,0,0,0,1.354-4.439Z"/><path class="cls-1" d="M147.674,30.642c-2.569,0-4.731,3-5.622,6.357V30.913l-5.33.258v1.158H138a1.656,1.656,0,0,1,1.288.491,2.26,2.26,0,0,1,.453,1.562v9.357a.857.857,0,0,1-.378.7,1.818,1.818,0,0,1-1.116.287h-1.459V45.88h9.185V44.723H144.1a2.2,2.2,0,0,1-1.286-.281.96.96,0,0,1-.378-.813V40.9c0-2.824,1.195-7.648,3.586-7.648.653,0,.52,1.043,1.824,1.043a1.738,1.738,0,0,0,1.784-1.783A1.877,1.877,0,0,0,147.674,30.642Z"/><path class="cls-1" d="M0,0s0,12.69,0,21.308C0,52.662,28.072,65.724,28.072,65.724S56.143,52.662,56.143,21.309c0-8.618,0-21.308,0-21.308Z"/><rect class="cls-2" x="0.922" y="0.936" width="54.328" height="20.402"/><path class="cls-2" d="M46.072,42.054a17.966,17.966,0,0,0-.774-5.21c-4.886,3.2-9.74,4.055-12.616,2.306a1.211,1.211,0,0,0,.254-.738,1.193,1.193,0,0,0-1.93-.938c-1.754-2.879-.9-7.733,2.3-12.618A17.932,17.932,0,0,0,28.1,24.08h0a17.973,17.973,0,0,0-5.211.775c3.2,4.886,4.057,9.738,2.3,12.617a1.193,1.193,0,0,0-1.676,1.675c-2.875,1.752-7.731.9-12.617-2.3a18.046,18.046,0,0,0-.774,5.211h0a17.983,17.983,0,0,0,.774,5.209c4.886-3.2,9.742-4.057,12.617-2.3a1.193,1.193,0,0,0,1.675,1.676c1.753,2.877.9,7.73-2.3,12.617a18.042,18.042,0,0,0,5.211.776h0a18.034,18.034,0,0,0,5.209-.776c-3.2-4.887-4.057-9.74-2.305-12.617a1.193,1.193,0,0,0,1.677-1.674c2.877-1.757,7.73-.9,12.617,2.3a17.976,17.976,0,0,0,.773-5.211Z"/><path class="cls-1" d="M31.351,42.053A3.251,3.251,0,1,1,28.1,38.8,3.25,3.25,0,0,1,31.351,42.053Z"/><path class="cls-3" d="M10.887,13.423A5.987,5.987,0,0,0,7.453,12.4a2.351,2.351,0,0,1,1.183-1.125c-2.176,0-2.426-.59-2.5-1.092a2.043,2.043,0,0,0,1.531-.353A2.5,2.5,0,0,1,5.385,8.306c1.229-.091,1.215-.712,1.05-1.091a.812.812,0,0,0-.961-.4c-.36.11-.726.627-1.1.658-.351.027-.4-.328-.4-.544a1.422,1.422,0,0,0-1,.45,2.17,2.17,0,0,1,2.569-1.82,1.71,1.71,0,0,0-.237-.794c-.292-.292-.664-.26-.937-.46a.343.343,0,0,1,.119-.592c-.3-.4-1.122-.433-1.122-.433,1.7-1.262,2.816.345,3.173,1.577.456-.564.5-.88.443-1.191-.065-.342-.339-.59-.309-.787.043-.291.36-.232.36-.232a1.311,1.311,0,0,0-.715-.971A1.951,1.951,0,0,1,8.245,2.958a2.152,2.152,0,0,1-.153,2.119s.511.063.727-.211c.232-.294.1-.66.334-.862s.5.18.5.18c.255-.255.083-.885.033-1.059a1.425,1.425,0,0,1,.627,1.288c-.06.562-.623,1.029-.861,1.336s-.926.974.187,2.9a4.224,4.224,0,0,0,1.715,1.815A5.6,5.6,0,0,0,10.887,13.423Z"/><path class="cls-3" d="M5.476,16.006c-1.328.1-3.706.636-2.492,3.095a1.288,1.288,0,0,1,.5-1.174c.11.378.391.445.6.3s.434-.555.665-.714a1.057,1.057,0,0,1,.923-.127c-1.081,1.818.181,3.578,1.165,3.478a1.132,1.132,0,0,1-.522-1.087.438.438,0,0,0,.481-.2c.108-.222-.067-.665.048-1.08a.52.52,0,0,1,.563-.39.561.561,0,0,1,.445.633,1.557,1.557,0,0,1-.2.65c.587.422,2.209-.087,3.175-.924a2.454,2.454,0,0,1-.276,1.171,3.563,3.563,0,0,0,2.812-1.575,2.419,2.419,0,0,1-.46,1.714A5.382,5.382,0,0,0,16.725,18a1.837,1.837,0,0,0,2.532,1.3s-.59-.33-.59-.8c0-.757.832-1.336,1.868-1.787,1.2-.526,3.171-.764,5.165-1.711,3.673-1.742,4.33-3.426,7.35-3.426a3.587,3.587,0,0,1,3.271,1.388c.659,1.085.494,2.366,1.234,3.073s2.033.186,2.735-.028c1.757-.54,4.337-1.621,5.909-1.729a1.852,1.852,0,0,1,2.02,1.16c.122.342-.023.557-.249.543-.525-.033-1.476-.275-2.028.039a1.5,1.5,0,0,0-.568,1.533,1.646,1.646,0,0,1,1.2-.789c.016.047.107.63.588.415.327-.146.691-.592,1.328-.479-.611.527-1.753,2.589-.125,3.47a1.483,1.483,0,0,1-.081-1.344.557.557,0,0,0,.779-.138c.127-.186-.047-.7.057-1.106a1.034,1.034,0,0,1,.438-.557,2.862,2.862,0,0,0,3.067,1.693,1.48,1.48,0,0,1-.871-.776c.249-.177.364-.595.11-.7-.238-.1-.725-.012-.955-.331a1.563,1.563,0,0,1-.206-.945c.728.32,2.563,1.041,3.307-.6a2.448,2.448,0,0,1-1.226.321c-.044-.188-.245-.708-.633-.738a6.01,6.01,0,0,0-1.361.185.556.556,0,0,1-.618-.318.537.537,0,0,1,.077-.481,1.493,1.493,0,0,1,.567-.407c-.272-.539-1.185-.309-1.384-.274a1.577,1.577,0,0,1,.949-1.106c-.224-.385-.915-.729-2.044-.539a1.759,1.759,0,0,1,.863-1.087,3.548,3.548,0,0,0-3.326.735,1.949,1.949,0,0,0-.376-1.471s-1.679,2.111-3.327,1.832-1.389-2.26-1.389-2.26,3.253.516,4.826-.212S47.174,7.7,48.493,7.013a3.255,3.255,0,0,1,2.325-.1c-.2-1.086-2.255-1.938-3.84-.274,0,0-.037-2.51-3.919-2.314-1.413.071-4.049.865-6.461,1.305a50.63,50.63,0,0,1-7.334.639c-1.49,0-2.95-.326-2.95-1.3s1.075-1.11,1.787-1.11a14.816,14.816,0,0,1,3.984,1.108,6.948,6.948,0,0,0,2.3.32,11.948,11.948,0,0,0,3.856-1,5.819,5.819,0,0,1,3.116-.4c-.5-.659-2.362-1.434-4.513-.289-.2-.345.215-.992,1.051-1.259a6.665,6.665,0,0,0-3.075-.541c-2.331.06-3.066,1.157-5.332,1.06s-4.341.279-4.341,1.992c0,1.356,1.66,2.4,4.344,2.509-.068.213-.431.475-.547.545a5.683,5.683,0,0,0,4.049-1.1,1.049,1.049,0,0,1-.3.8A6.894,6.894,0,0,0,35.919,6.4a1.167,1.167,0,0,1-.368.873c1.656-.117,2.563-.957,3.688-1.312,1.5-.474,6.34-1.6,6.34,1.081,0,.642-.313,1.557-1.982,1.557a30.735,30.735,0,0,1-5.078-.862,7.041,7.041,0,0,0-2.633-.025c-1.363.19-11.579,1.65-13.251,1.887,0,.55.021,2.268.923,3.048a2.912,2.912,0,0,1-2.783-.045,3.258,3.258,0,0,0,.631,2.409,3.043,3.043,0,0,1-2.664-.228A3.839,3.839,0,0,1,14.2,16.931a4.271,4.271,0,0,0,.721-1.386c-.6.444-2.18,1.307-5.124.965-.892-.1-1.83-.383-2.086-.957-.273-.6.111-1.46-.077-1.938a1.47,1.47,0,0,0-1.467-.9c.118.1.524.348.606.705a.435.435,0,0,0-.452.464,4.758,4.758,0,0,0,.2,1.4c-1.24-1.238-3.282-2.57-3.938-.385a1.1,1.1,0,0,1,.978-.43s-.245.38.239.713c.224.155.787-.016,1.074.116a1.938,1.938,0,0,1,.631.712"/><path class="cls-3" d="M32.607,15.357c.26.184.138.388.013.505s-1.47,1-2.341.728c-.666-.208-.664-1.4-1.583-1.786a1.873,1.873,0,0,0-1.566.249,2.511,2.511,0,0,1,.844.227.3.3,0,0,0,.125.418c.277.153.478.079.677.3.256.284.046.865.046.865-1.987-1.558-3.834-.5-3.964.51a1.7,1.7,0,0,1,.97-.324s.007.3.255.368c.288.076.639-.191,1.061-.127a1.706,1.706,0,0,1,.825.475A1.671,1.671,0,0,0,27,20.452c-.021-.288.011-.663.2-.791a.591.591,0,0,0,.58-.025c.231-.2.306-.671.6-1.012a1.054,1.054,0,0,1,.669-.367c-.161.879.628,2.6,2.08,2.245a1.231,1.231,0,0,1-.593-.752s.412-.148.368-.368c-.073-.367-.625-.287-.625-.737,0-.281.241-.488.619-.488.881,0,.757,1.121.757,1.121a2.154,2.154,0,0,0,1.6-1.43,1.738,1.738,0,0,1,.421,1.364c.724-.3,1.3-.833,1.3-2.854a2.394,2.394,0,0,0,3.194.582,2.356,2.356,0,0,1-1.772-1.954,4.414,4.414,0,0,0-.873-2.1c-.921-.923-3-.856-4.208-.476a.863.863,0,0,0-.692.9,1.5,1.5,0,0,0,.973,1.547A7.367,7.367,0,0,1,32.607,15.357Z"/><path class="cls-3" d="M23.851,5.243a.35.35,0,0,0-.181-.512,4.375,4.375,0,0,0-1.405.014,1.724,1.724,0,0,0-.282-2.121.9.9,0,0,1-1.147.757c-.66-.172-.408-1.1-.208-1.495A2.323,2.323,0,0,0,18.52,3.039a2.046,2.046,0,0,0-1.87-1.614c.27.564-.058,1.435-.549,1.253-.1-.887-1.022-1.261-1.09-.643C14.9,3.061,13.946,4.313,13.16,4.379c-.071.57.6.882.975.89a2.466,2.466,0,0,1-3.076.864,1.757,1.757,0,0,0,1.665,1.654,2.017,2.017,0,0,1-2.177.762c-.163.848,1.211,1.6,1.585,1.669a4.78,4.78,0,0,0-.116,4.858,3.019,3.019,0,0,1,.578-.935c.285-.273.5-.33.684-.235.262.132.184.535.036.832a4.574,4.574,0,0,1-.877,1.082,4.174,4.174,0,0,0,3.131-1.315,3.045,3.045,0,0,1-.449,1.964c1.991.214,2.982-1.52,3.411-2.574a2.156,2.156,0,0,0,2.018.739,3.124,3.124,0,0,1-.071-2.9,2.406,2.406,0,0,0,2.157.632,6.393,6.393,0,0,1-.47-3.858,1.37,1.37,0,0,0,1.287.216,3.415,3.415,0,0,1-.294-1.848A4.417,4.417,0,0,1,23.851,5.243Zm-7.7.568c.077-.083.182-.172.241-.084a2.149,2.149,0,0,0,.425.58,1.686,1.686,0,0,0,.582.3c.069.278-.408.624-1.025.055C16.054,6.369,15.957,6.018,16.148,5.811Zm1.508,5.416c-.242.487-1.253,1.205-1.836.891a3.262,3.262,0,0,0,1.327-1.227,1.482,1.482,0,0,1-.382-.27,3.322,3.322,0,0,0-.917.9,2.011,2.011,0,0,1,.32-1.194,3.167,3.167,0,0,1-.567-.214,3.289,3.289,0,0,0-.218,1.786c-.6-.284-.623-1.522-.376-2.007-.753-.528-.506-1.162-.276-1.289.005.208.193.648.842.973s.914.1.989-.042c.132-.263-.192-.508-.423-.76a.69.69,0,0,1-.119-.823.523.523,0,0,1,.694-.068c-.8.143.165.977.414,1.1s1.488.4,1.128-.323a.525.525,0,0,1,.358.6.7.7,0,0,1-.732.391c-.338-.037-.728-.153-.862.111-.074.146-.1.493.553.82a1.326,1.326,0,0,0,1.283.1C18.891,10.943,18.529,11.52,17.656,11.227Zm2.6-3.343c-.052.277-.392.406-.816.326-.823-.158-.829-.747-.564-.858a1.67,1.67,0,0,0,.586.291,2.14,2.14,0,0,0,.718,0C20.288,7.636,20.28,7.773,20.258,7.884Z"/><path class="cls-1" d="M145.8,82.1h1.809V74.115h.046L152.6,82.1H154.6V71.242h-1.81v8h-.03l-4.957-8H145.8Zm-13.015-9.563c2.326,0,3.3,2.053,3.3,4.136s-.973,4.135-3.3,4.135-3.3-2.053-3.3-4.135S130.459,72.534,132.785,72.534Zm0-1.551c-3.253,0-5.2,2.585-5.2,5.687s1.946,5.685,5.2,5.685,5.2-2.584,5.2-5.685S136.039,70.983,132.785,70.983ZM111.029,82.1h4.5c3.344,0,4.789-2.432,4.789-5.427s-1.445-5.428-4.789-5.428h-4.5Zm1.9-9.3h1.87c2.98,0,3.618,1.7,3.618,3.878s-.638,3.876-3.618,3.876h-1.87ZM93.818,82.1h1.809V74.115h.046l4.941,7.982h2.006V71.242h-1.808v8h-.031l-4.956-8H93.818ZM80.8,72.534c2.326,0,3.3,2.053,3.3,4.136s-.973,4.135-3.3,4.135-3.3-2.053-3.3-4.135S78.477,72.534,80.8,72.534Zm0-1.551c-3.253,0-5.2,2.585-5.2,5.687s1.946,5.685,5.2,5.685S86,79.771,86,76.67,84.057,70.983,80.8,70.983ZM61.3,82.1h7.419V80.455H63.2V71.242H61.3Z"/><path class="cls-3" d="M61.484,62.924h136.7a.535.535,0,1,0,0-1.069H61.484a.535.535,0,0,0,0,1.069"/></g></g></svg>